<?xml version="1.0" standalone="no"?>
<!DOCTYPE svg PUBLIC "-//W3C//DTD SVG 1.1//EN" "http://www.w3.org/Graphics/SVG/1.1/DTD/svg11.dtd" >
<svg xmlns="http://www.w3.org/2000/svg" xmlns:xlink="http://www.w3.org/1999/xlink" version="1.1">
<metadata>
Created by FontForge 20170731 at Sat Feb  8 23:41:52 2003
 By Aleksey,,,
(c) Jakob Fischer at www.pizzadude.dk - DO NOT DISTRIBUTE WITHOUT AUTHOR'S PERMISSION!
</metadata>
<defs>
<font id="AgentOrange" horiz-adv-x="500" >
  <font-face 
    font-family="Agent Orange"
    font-weight="400"
    font-stretch="normal"
    units-per-em="1000"
    panose-1="0 0 4 0 0 0 0 0 0 0"
    ascent="800"
    descent="-200"
    x-height="833"
    cap-height="833"
    bbox="-59 -322 1355 850"
    underline-thickness="20"
    underline-position="-163"
    unicode-range="U+0020-E002"
  />
<missing-glyph 
d="M63 0v813h375v-813h-375zM125 63h250v688h-250v-688z" />
    <glyph glyph-name=".notdef" 
d="M63 0v813h375v-813h-375zM125 63h250v688h-250v-688z" />
    <glyph glyph-name="glyph1" horiz-adv-x="0" 
 />
    <glyph glyph-name="glyph2" 
 />
    <glyph glyph-name="space" unicode=" " 
 />
    <glyph glyph-name="exclam" unicode="!" horiz-adv-x="449" 
d="M294 -67q0 -54 -55 -93q-51 -36 -107 -36q-57 0 -94.5 34t-37.5 90q0 51 49 102.5t100 51.5q66 0 105.5 -41.5t39.5 -107.5zM225 788q43 -213 43 -426q0 -34 -1 -69q-1 -10 -2 -62l-1 -43q0 -15 -1 -24q0 -7 0 -4q-47 -11 -85 -11q11 0 -83 7q-14 1 -23 1q-24 0 -40 -4
q-15 153 -15 206q0 75 22 429q70 2 143 2q25 0 43 -2zM228 818q-18 2 -46 2q-29 0 -85.5 -1.5t-85.5 -1.5q-24 -358 -24 -458q0 -60 18 -244h3q1 1 2 1l43 -43q-11 -9 -25 -23q-58 -60 -58 -122q0 -82 64 -126l30 -30q45 -45 118 -45q63 0 122 42q67 48 67 114q0 82 -49 129
l-28 27q-8 14 -31 35q36 4 77 15v29q0 18 2 53t2 53v19q0 293 -43 500l-46 46q-1 1 -1 5z" />
    <glyph glyph-name="quotedbl" unicode="&#x22;" horiz-adv-x="604" 
d="M211 743q0 -55 -29 -187q-33 -150 -66 -150q-40 0 -59 82q-1 1 -22 113q-3 18 -20 73q-13 43 -13 75q0 54 93 54q116 0 116 -60zM462 715q-10 -35 -24 -124q-3 -45 -16 -131q-17 -65 -49 -65q-45 0 -83 149q-32 126 -32 193q0 63 68 63q63 0 91 -12q45 -19 45 -73z
M120 348q20 -19 46 -19q36 0 66 78q8 20 16.5 60t14.5 58q35 -125 82 -152l35 -35q20 -20 43 -20q52 0 75 85q10 37 17 136q3 40 11 93l1 1q1 4 5 12v1h-1l8 19q0 49 -27 75l-36 35q-33 55 -150 55q-70 0 -92 -51l-2 2q-23 52 -137 52q-123 0 -123 -84q0 -27 27 -127
q2 -7 6 -22q1 -2 1 -5q3 -16 9 -49h-1q7 -43 15 -64h-1q18 -76 55 -98zM507 744z" />
    <glyph glyph-name="numbersign" unicode="#" horiz-adv-x="868" 
d="M443 378q-29 0 -87 -3q-22 -4 -67 -11v-67q0 -7 -3.5 -21.5t-3.5 -21.5q0 -9 36 -9h70q32 0 55 -4q2 34 2 58v25q0 22 -2 54zM313 547h24q11 0 33.5 1t33.5 1h24l-7 172q-1 18 90 18q47 0 51 -68q1 -25 6 -101l120 -19q14 -17 16 -83l3 -90h-62q-36 0 -48.5 -14
t-12.5 -51v-40q9 -6 21 -6q8 0 24.5 3.5t24.5 3.5q23 0 48 -7q12 -19 17 -141q-17 -3 -47 -12l-66 -19q0 -39 4 -63v-18q0 -26 -7 -44l-192 -42q-8 100 -27 153h-68l-2 -61q0 -12 -6 -84q-108 -30 -147 -30q-11 55 -26 159l-121 -3q-7 44 -7 81q2 9 11 59l135 18l-1 145
q-78 -6 -121 -14q-9 10 -11 79l-2 88q44 10 134 22q4 38 1 78q-2 20 -7 78l151 23zM324 753l-210 -31q1 -8 6 -60v-9l4 -55v-31q-64 -8 -136 -25v-27v-24q1 -9 1 -2v-33q0 -102 31 -138h3l48 -47q12 2 25 4l26 4v-33l-131 -17q-2 -18 -8 -52l-6 -34q0 -40 11 -112h6l47 -47
l74 2l11 -64q5 -29 9 -46h6l47 -47q65 0 196 36q2 14 2 27h3l47 -47l237 52q14 35 14 67q0 7 -2 42q0 8 -2 19q54 17 114 30q-3 65 -6 95q-7 69 -21 90l-44 43q-1 4 -5 10q-5 1 -33 8h97l-4 118q-3 81 -29 107l-39 38q-3 7 -10 15l-62 10q-2 18 -2 33q-5 52 -28 75l-34 34
q-21 38 -66 38q-120 0 -120 -47v-2l5 -141q-9 0 -14 -1l-11 122l-47 46v7zM366 291q2 0 5 1h5q18 2 31 6h8v-12q0 -6 -1 -12q-6 1 -13 1h-35v16z" />
    <glyph glyph-name="dollar" unicode="$" horiz-adv-x="710" 
d="M401 212q0 7 -14.5 13.5t-24.5 7.5v-33q0 -10 11 -10q7 0 17.5 7.5t10.5 14.5zM211 394q2 20 2 29q0 15 -3 21q-22 -9 -22 -32q0 -6 8.5 -12t14.5 -6zM569 153q0 -51 -65 -76l-102 -40v-36q0 -17 -8 -34q-116 -33 -153 -33q-19 0 -36 104q-51 0 -122 32q-83 37 -83 80
q0 8 13 48q14 45 16 54q60 -24 89 -34q59 -20 91 -21l2 18l-3 37q-43 16 -116 50q-60 37 -60 102q0 86 40 134q38 45 122 71l4 64q73 36 98 35l21 -1q11 -23 18 -89q30 -14 99 -19q57 -4 102 -47q-5 -39 -9 -56q-8 -35 -19 -52q-27 11 -110 11q-29 0 -28 -34l1 -23
q198 -47 198 -245zM568 361q30 44 36 80q0 1 11 70l-48 47v2q1 1 1 2q-65 62 -132 67q-9 1 -35 3q-5 17 -17 51l-44 44q-2 3 -4 9l-42 2q-34 2 -125 -46l-4 -61q-85 -34 -123 -84q-40 -54 -40 -143q0 -78 68 -124l20 -21q-19 8 -73 30q-2 1 -8 3l-1 -5q-2 -10 -15 -48
q0 -6 -9 -33q-14 -42 -14 -56q0 -45 51 -81l29 -28q49 -47 137 -69q12 -55 39 -65l39 -39q11 -11 26 -11q39 0 173 38q15 33 15 55v19q38 16 66 25q2 1 19 8q82 35 82 101q0 125 -70 195l-32 32q-31 31 -50 46q45 -3 74 -15z" />
    <glyph glyph-name="percent" unicode="%" horiz-adv-x="470" 
 />
    <glyph glyph-name="ampersand" unicode="&#x26;" horiz-adv-x="790" 
d="M335 123q-25 34 -107 115q-56 -39 -56 -87q0 -23 19.5 -39t43.5 -16q67 0 100 27zM157 461q0 -28 31 -45q26 -15 56 -15q42 0 58 34q12 25 12 38q0 19 -31.5 40t-51.5 21q-26 0 -50 -23.5t-24 -49.5zM647 68q-99 -130 -123 -130q-22 0 -80 75q-42 -25 -114.5 -45.5
t-121.5 -20.5q-82 0 -140 38q-68 44 -68 121q0 55 40 111q18 25 82 89q-115 61 -115 212q0 94 85 155q76 55 174 55q81 0 141.5 -63.5t60.5 -144.5q0 -110 -96 -173l76 -103l99 70l91 -65l-65 -93q13 -12 74 -88zM545 470q0 42 -20.5 89t-51.5 77l-25 24l-10 12
q-72 86 -172 86q-103 0 -191 -62q-98 -69 -98 -178q0 -143 97 -218q-51 -51 -73 -86q-31 -52 -31 -108q0 -91 75 -143l24 -24q69 -69 189 -69q54 0 128 22q59 18 97 36q2 -2 6 -5l25 -25q37 -37 60 -37q37 0 145 141l-1 33q-39 50 -61 73l68 98l-48 48l2 3l-132 93l-87 -61
v1q85 70 85 180zM249 440h1q17 16 29 17q-1 -3 -4 -10q-9 -16 -31 -16h-4zM273 149q4 -5 8 -8l7 -8q-11 -3 -32 -7q7 14 17 23z" />
    <glyph glyph-name="quotesingle" unicode="'" horiz-adv-x="361" 
d="M208 747q0 -60 -28 -187q-33 -150 -66 -150q-43 0 -75 150q-6 26 -39 193l12 22q3 0 21.5 11t24.5 10l8 7h45q33 0 44 -1q53 -5 53 -55zM125 351q19 -18 39 -18q54 0 92 171q29 130 29 193q0 38 -20 58l-37 37q-20 35 -71 40q-10 1 -51 1h-51l-9 -8q-8 -2 -25 -12l1 1
l-6 -3q-12 -6 -22 -6l-25 -47q11 -49 23 -114l14 -74q1 -6 3 -17q23 -136 80 -167z" />
    <glyph glyph-name="parenleft" unicode="(" horiz-adv-x="603" 
d="M460 -196q-188 49 -306 138q-154 116 -154 281q0 157 46 269q50 122 164 217q51 43 85 63q50 30 100 30q2 -10 5 -82q2 -49 19 -80l-9 -15q-84 -19 -154 -133q-65 -106 -65 -197q0 -95 41 -148q25 -33 101 -72q81 -42 123 -78zM268 245q0 89 62 185q65 103 147 122l23 38
q-21 38 -24 108q0 5 -2 22q0 3 1.5 7.5t1.5 5.5q0 10 -12 46l-46 45q0 3 -2 8q-82 0 -138 -34q-33 -20 -88 -66q-119 -100 -172 -227q-49 -119 -49 -282q0 -172 147 -290l15 -15q23 -23 56 -48q120 -91 315 -142l34 27l-4 204l-47 47v4q-55 47 -140 92q-20 11 -58 34
q-20 40 -20 109z" />
    <glyph glyph-name="parenright" unicode=")" horiz-adv-x="600" 
d="M463 223q0 -150 -75 -224q-47 -46 -174 -95q-140 -54 -195 -100h-13q-5 18 -5 62q0 95 3 124q2 18 73 52q86 41 127 82q68 68 68 171q0 97 -63 198q-67 107 -156 132l-9 15q14 26 19 79q3 41 6 83q70 -3 165 -70q89 -62 131 -127q46 -72 73 -184q25 -103 25 -198z
M391 628l-17 17q-46 57 -123 110q-107 74 -209 78q0 7 -4 -40q-7 -78 -7 -79q-6 -46 -22 -75l24 -39q3 0 7 -2l46 -46q33 -11 61 -30q18 -19 34 -46q61 -99 61 -181q0 -91 -59 -150q-12 -12 -119 -74q-87 -51 -90 -80t-3 -125q0 -53 12 -92h5l47 -47h44q50 41 196 101
q134 55 182 102q83 82 83 243q0 99 -26 204q-30 122 -76 193l-4 3q-22 34 -43 55z" />
    <glyph glyph-name="asterisk" unicode="*" horiz-adv-x="583" 
d="M432 338q-4 -23 -17 -52q-17 -38 -31 -38q-15 0 -75 26l-1 -11q0 -11 6 -31.5t6 -31.5l-6 -11q-18 -2 -115 -24q-11 18 -16 50q-7 41 -10 51q-47 -62 -61 -62q-12 6 -75 39q7 31 54 84q-37 27 -91 62q18 64 40 98q68 -24 112 -47q8 50 8 101q16 16 80 34q16 -13 22 -54
q3 -21 8 -62q68 67 80 67t42 -13t30 -22q0 -10 -34 -53l-44 -56q41 -23 88 -44zM303 549l-34 33q-9 14 -23 26q-27 -10 -57 -18q-35 -13 -59 -37q0 -35 -3 -68q-43 19 -101 39q-35 -55 -61 -149q6 -5 19 -13l35 -35q9 -9 22 -15q-30 -47 -39 -86q4 -2 12 -7l42 -41
q24 -12 87 -44q4 -2 13 -7q16 0 26 6l2 -2q3 0 5 1l47 -47q48 11 145 28l16 29q0 11 -5 39q26 -10 42 -10q31 0 56 54q15 32 19 58l-16 30l-42 41l-2 4l10 13q40 52 40 70q0 14 -12 26l-39 38q-9 19 -42 35t-56 16q-11 0 -36 -19q-4 3 -11 12z" />
    <glyph glyph-name="plus" unicode="+" horiz-adv-x="655" 
d="M359 250q-1 -15 1 -80l3 -112l-178 -36q-15 37 -17 112q-1 79 -12 111q-17 0 -69 -3q-34 -2 -69 -2q-19 0 -19 38q0 99 6 119q9 30 45 36q12 2 113 2q8 0 10 52l2 61q46 13 138 33q13 -20 13 -52q0 -11 -2 -32t-2 -32q0 -15 4 -30q43 6 128 6h33l30 -154q3 -17 -68 -28
q-52 -8 -90 -9zM403 479q0 40 -27 82l-39 38q-3 5 -9 16l-50 -11q-15 -3 -52 -12l-80 -21l-3 -86q0 -14 6 -20q-92 0 -104 -2q-55 -9 -69 -58q-7 -24 -7 -127q0 -53 30 -65l39 -39q11 -11 30 -11h19q8 0 25 1t25 1q0 -5 2 -32q7 -94 27 -145l5 1l47 -47l223 45
q-5 130 -5 187q31 3 67 8q91 13 91 54v6l-34 176l-46 45l-1 8h-86q-12 0 -24 -1v9z" />
    <glyph glyph-name="comma" unicode="," horiz-adv-x="426" 
d="M269 -37q0 -64 -32 -124q-38 -71 -96 -71q-12 0 -27 11.5t-15 23.5q0 13 10.5 39t10.5 37q0 21 -25 29l-47 15q-25 15 -25 50q0 39 36.5 85t74.5 46q47 0 91 -46.5t44 -94.5zM294 24q-3 2 -7 6l-8 8q1 -1 5 -4l-19 18q-8 12 -19 24q-50 58 -112 58q-50 0 -95.5 -55
t-45.5 -106q0 -52 42 -77h1l34 -34q5 -5 11 -9v-1q-12 -32 -12 -49q0 -27 39 -53l33 -33q26 -26 50 -26q75 0 120 85q35 66 35 137q0 57 -52 111z" />
    <glyph glyph-name="hyphen" unicode="-" horiz-adv-x="744" 
d="M565 420q21 -173 21 -196q0 -60 -46 -60q-102 0 -245 16l-260 29l-46 46l-7 1q-11 57 -11 74q0 20 2 63l4 86q76 0 152 -5l61 -4q122 -8 181 -8q91 0 148 4zM599 446q0 1 -25.5 27t-25.5 28q-109 -9 -177 -9q-63 0 -189.5 8.5t-189.5 8.5h-44l-5 -101q-2 -40 -2 -78
q0 -25 16 -101l7 -1l46 -46l16 -3l47 -46l269 -30q143 -16 248 -16q73 0 73 87q0 26 -22 208z" />
    <glyph glyph-name="hyphen" unicode="&#x2010;" horiz-adv-x="744" 
d="M565 420q21 -173 21 -196q0 -60 -46 -60q-102 0 -245 16l-260 29l-46 46l-7 1q-11 57 -11 74q0 20 2 63l4 86q76 0 152 -5l61 -4q122 -8 181 -8q91 0 148 4zM599 446q0 1 -25.5 27t-25.5 28q-109 -9 -177 -9q-63 0 -189.5 8.5t-189.5 8.5h-44l-5 -101q-2 -40 -2 -78
q0 -25 16 -101l7 -1l46 -46l16 -3l47 -46l269 -30q143 -16 248 -16q73 0 73 87q0 26 -22 208z" />
    <glyph glyph-name="period" unicode="." horiz-adv-x="420" 
d="M95 -92l-47 15q-25 15 -25 50q0 39 36.5 85t74.5 46q47 0 91 -46.5t44 -94.5q0 -33 -41 -51q-34 -11 -69 -22q0 10 -26 13q-19 2 -38 5zM328 -92q10 12 10 29q0 41 -44 87q-3 2 -7 6l-8 8q1 -1 5 -4l-19 18q-8 12 -19 24q-50 58 -112 58q-50 0 -95.5 -55t-45.5 -106
q0 -52 42 -77h1l95 -77q82 11 111 22q44 17 86 67z" />
    <glyph glyph-name="slash" unicode="/" horiz-adv-x="690" 
d="M569 782q0 -50 -141 -447l-176 -495q-37 -16 -121 -18l-127 -3q12 57 39 165q3 14 45 120q28 73 115 288l149 362q35 25 102 36q13 2 101 12l10 1zM590 836q-20 -1 -44 -4l-72 -8q-9 -1 -19 -3v-1h-7q-77 -15 -121 -47l-152 -370q-23 -57 -115 -290q-43 -108 -59 -174
l-14 -57q-5 -22 -20 -94h7l47 -47q38 0 69 1l92 3q86 0 141 24l180 507q143 403 143 461l-9 46l-46 45z" />
    <glyph glyph-name="zero" unicode="0" horiz-adv-x="1177" 
d="M790 338q0 110 -88 177q-79 61 -193 61q-99 0 -176 -87.5t-77 -187.5q0 -80 73.5 -150.5t154.5 -70.5q113 0 206 71q100 77 100 187zM1038 296q0 -234 -164 -367q-152 -124 -391 -124q-196 0 -336 119q-147 125 -147 318q0 239 192 405q182 157 426 157q190 0 311 -163
q109 -146 109 -345zM146 -114q17 -17 35 -32l-1 1q148 -127 353 -127q250 0 410 132q172 141 172 386q0 255 -163 418l-12 12q-128 158 -322 158q-255 0 -446 -165q-202 -174 -202 -427q0 -208 159 -340q2 -1 6 -5zM760 338q0 -98 -91 -166q-84 -62 -185 -62q-62 0 -121 52
q-30 43 -30 89q0 88 69.5 168t156.5 80q92 -1 166 -49q35 -49 35 -112z" />
    <glyph glyph-name="one" unicode="1" horiz-adv-x="701" 
d="M538 -175q-14 -11 -85 -12q31 1 9 1h-97q-88 0 -174 14l23 528q-58 -6 -158 -14l-31 25q1 14 5 59q2 23 6 91l1 30q15 30 45 77q9 14 50 94q38 74 52 78q-21 0 213 7q34 1 56 1q59 0 59 -73q0 -86 13 -257.5t13 -257.5v-391zM47 305l50 -41l83 6l-20 -467q4 0 6 -1
l47 -47q109 -18 202 -18h88l1 -1q80 1 101 18l10 21v391q0 86 -13 257.5t-13 257.5q0 54 -25 79l-35 35q-21 39 -76 39q-37 0 -109 -3l-108 -4l-59 -1q-29 -9 -72 -94l-19 -38q-15 -26 -58 -100q-7 -13 -21 -40l-1 -36q0 -16 -3 -50l-5 -66q-1 -14 -4 -48l23 -19z" />
    <glyph glyph-name="two" unicode="2" horiz-adv-x="841" 
d="M698 -85q0 -7 -248 -56q-273 -54 -411 -54l-24 66q0 245 102 357q43 47 190 116q103 48 103 135q0 37 -29 62.5t-66 25.5q-59 0 -87 -46q-15 -25 -31 -100q-60 -9 -101 -9q-23 0 -81 4l-15 48q0 127 87 231q91 109 216 109q178 0 268 -65q104 -76 104 -247
q0 -82 -61 -152q-41 -47 -134 -117q-57 -42 -133 -107q52 0 116 5l116 9q26 2 61 2q4 0 30 -86q28 -92 28 -131zM684 272h1q67 79 67 170q0 159 -85 244l-3 2q1 0 1 -1l-21 22q-18 19 -55 54q-98 71 -286 71q-139 0 -239 -120q-94 -114 -94 -256l22 -71h3q2 -1 3 -1l46 -46
l31 -2q13 0 54 -2q5 0 10 -1h7q32 0 89 6q-103 -53 -140 -93q-110 -121 -110 -382l34 -91h5l47 -47q158 0 434 55q270 54 270 82q0 44 -29 139q-25 81 -42 98l-36 36q-14 24 -28 24q-31 0 -83 -4q55 44 67 54q35 30 60 60zM301 457q21 33 64 33q6 0 14 -2q0 -2 1 -4v-5
q0 -76 -108 -119q16 77 29 97z" />
    <glyph glyph-name="three" unicode="3" horiz-adv-x="805" 
d="M658 129q0 -145 -119 -238q-111 -87 -259 -87q-66 0 -169 67q-111 72 -111 132q0 26 136 126q80 -61 174 -61q36 0 74 25q42 27 42 61q0 107 -143 113q-29 1 -104 3l-8 25q0 -12 6 128q80 94 139 167q-219 -11 -249 -22q-1 22 -1 41v36q0 102 11 135q76 19 198 19h37
q7 -1 10 -1h79q58 0 121 5q20 -19 52 -144q-40 -84 -134 -223q112 -62 158 -120q60 -75 60 -187zM162 240l47 -47h36l65 -2q4 0 22 -1q34 -1 60 -10q4 -12 4 -26q0 -16 -27 -35v1q-36 -22 -59 -22q-84 0 -174 68q-166 -121 -166 -163q0 -66 87 -132l16 -16q27 -27 73 -57
q109 -71 184 -71q159 0 278 95q127 101 127 257q0 145 -89 229l-18 17q-2 3 -7 10q-29 36 -83 76q72 110 115 196q-1 6 -6 24l-6 21l-11 41l-2 1q-16 57 -41 81l-34 33q-2 3 -21 26q-60 -6 -131 -6h-79q-2 0 -9 1h-38q-123 0 -222 -24q-17 -51 -17 -160v-25q0 3 1 -32l1 -35
v-28h2q2 1 3 1l48 -47q23 9 113 21l-31 -37q-4 -5 -26 -29l-6 -142zM630 692h-1v1z" />
    <glyph glyph-name="four" unicode="4" horiz-adv-x="950" 
d="M814 243q0 -21 -65 -33q-43 -8 -87 -10l-6 -33l29 -264l-5 -34q-43 -3 -135 -34q-87 -30 -136 -30q-26 0 -36 93q-4 38 -12 182l-2 37q-4 71 -17 88h-146q-36 0 -102 11q-73 12 -94 26l41 238q32 188 60 207q32 22 173 32l-31 -271q29 -7 73 -16l58 -12q13 65 13 74
q0 50 -10 159q-9 98 -8 99q17 2 62 14q39 11 62 11q108 20 116 18q22 -40 22 -128q0 -16 -1.5 -47.5t-1.5 -47.5v-25q0 -77 7 -128q6 -3 48 -3q9 0 104 -12q27 -120 27 -161zM705 444q-1 13 -0.5 26t0.5 27v24q0 13 1.5 39t1.5 39v18q0 95 -33 155l-43 42q-1 4 -5 11h-22
q-15 0 -59 -8l-11 -2v1q-16 -2 -43 -9q-28 0 -77 -12q-54 -13 -76 -15v-30q0 -11 2 -39l-34 35v2q1 2 1 3q-172 -13 -219 -37v2q-41 -27 -78 -230q-11 -58 -23 -134l-6 -37q-3 -16 -11 -60q-1 -8 -4 -26q6 -5 11 -7l42 -42q42 -28 120 -41q67 -11 106 -11h82q0 -8 3 -50
l12 -183q6 -98 50 -117l38 -38q12 -12 28 -12q54 0 144 32l1 -1q88 31 150 35l8 58l-29 263l2 9q31 2 69 9q87 16 87 60q0 41 -32 186l-46 45zM347 643q10 -108 10 -149q0 -6 -6 -39l-24 4z" />
    <glyph glyph-name="five" unicode="5" horiz-adv-x="721" 
d="M479 629q-32 -13 -134 -23q-84 -9 -132 -32l3 -75q21 1 62.5 15t64.5 14q115 0 179 -108q54 -91 54 -214q0 -144 -91 -267q-100 -135 -239 -135q-124 0 -188 81q-58 73 -58 200q0 9 8 53q13 5 47 16l23 7q36 11 72 14q38 -74 101 -74q51 0 77 51q21 40 21 96q0 49 -22 84
q-25 41 -71 41q-45 0 -58 -37l-24 -70q-6 2 -167 30q-7 29 -7 54v420q25 17 228 31q159 11 250 12zM484 850q-53 -7 -103 -10l-155 -9q-210 -13 -256 -46v-435q0 -35 12 -81q3 -1 7 -1l46 -46l55 -9q15 -2 46 -10q-43 -5 -67 -13v-1l-18 -6q-6 -2 -24 -7q-4 -2 -49 -17
q0 -3 -1 -8v-10q-7 -35 -7 -56q0 -139 65 -219q25 -31 47 -45l23 -23q71 -71 191 -71q154 0 261 146q96 131 96 283q0 131 -58 228q-22 37 -44 58l-20 19q-37 51 -83 74q68 11 108 26l-1 229q-5 0 -33 30t-38 30zM216 153l-43 43h-1v1q23 -5 69 -16l32 94q7 21 33 21h5
q8 -22 8 -48q0 -42 -14 -74q-18 -43 -54 -43q-15 0 -28 7q-2 5 -7 15z" />
    <glyph glyph-name="six" unicode="6" horiz-adv-x="785" 
d="M433 157q0 41 -37 75.5t-79 34.5q-46 0 -74 -34.5t-28 -81.5q0 -50 34 -75l60 -34q8 1 31 4q93 16 93 111zM645 240q0 -133 -5 -159q-8 -40 -63 -141q-74 -136 -272 -136q-138 0 -224 107q-81 99 -81 240q0 222 81 408q101 233 279 233q6 -13 18 -53l28 -91
q-110 -85 -130 -194q86 8 148 8q78 0 136 -62q85 -91 85 -160zM487 589q-18 61 -59 180l-45 44l-3 9q-218 0 -327 -251q-83 -191 -83 -420q0 -152 88 -259q27 -33 56 -55l20 -20q90 -90 221 -90q215 0 296 150q61 112 67 144q4 21 4 169q0 43 -30 97q-26 47 -62 82l-29 28
q-3 5 -24 29v-1q-64 67 -153 67h-16q-8 0 -16 -1q33 51 95 98zM403 157q0 -67 -70 -81v-1q-6 0 -18 -2l-22 12q-1 5 -1 16q0 36 20 62.5t55 26.5q10 0 29 -7q7 -16 7 -26z" />
    <glyph glyph-name="seven" unicode="7" horiz-adv-x="733" 
d="M607 688q-82 -142 -123 -247q-49 -124 -71 -265q-3 -26 -12 -94l-27 -205l-127 -44q-74 -26 -128 -29l-36 37q34 92 59 265q13 88 21 135q11 66 31 134q9 31 44 104q32 67 41 105q-57 18 -176 18h-14q-1 0 -21 -1q-22 -1 -34 0q-18 2 -34 6q4 66 7 107q7 86 24 86h484
q6 -5 37 -44l35 -44q7 -9 20 -24zM21 538q32 -11 59 -14q4 -1 9 -1h22q6 0 11 1q11 1 18 1h13q38 0 72 -2q-5 -12 -14 -31q-35 -71 -46 -108q-25 -85 -53 -274q-25 -165 -64 -276l60 -61h4l47 -47q67 4 186 45q19 6 72 25q9 4 32 12l41 314q17 131 69 261q41 103 121 242
l-4 32l-4 3q-14 17 -49 63q-8 11 -33 40l-25 25q-34 42 -50 42h-484q-45 0 -54 -115q-2 -30 -8 -114q-1 -13 -1 -15q3 -1 8 -3z" />
    <glyph glyph-name="eight" unicode="8" horiz-adv-x="862" 
d="M495 142q0 56 -37 84q-8 6 -30.5 11t-29.5 9q-17 10 -19 12q-47 0 -89 -35t-42 -81q0 -50 48 -80q42 -27 94 -27q40 0 72.5 33.5t32.5 73.5zM461 497q0 44 -41 73q-37 26 -83 26l-11 -6q-11 -6 -19 -6q-21 0 -46.5 -29t-25.5 -51q0 -42 38 -70q35 -27 78 -27q46 0 76 22
q34 24 34 68zM712 125q0 -139 -120 -233q-112 -88 -255 -88q-113 0 -219 69q-118 77 -118 185q0 88 40 164q43 84 118 118q-90 84 -90 174q0 117 84 203t201 86q122 0 226 -63q121 -73 121 -188q0 -57 -23 -121q-25 -72 -64 -103q99 -74 99 -203zM92 -152q23 -23 61 -48
q110 -73 234 -73q150 0 271 95q131 103 131 253q0 119 -77 196l-8 8q1 -1 1 -1.5t1 -1.5l-3 3q31 35 50 93h-1q25 73 25 130q0 95 -67 159l-20 19q-33 48 -95 86q-110 67 -242 67q-128 0 -221.5 -95.5t-93.5 -223.5q0 -88 71 -168q-67 -45 -104 -127q-35 -76 -35 -161
q0 -115 106 -194zM465 142q0 -27 -30 -58q-18 -19 -45 -19q-35 0 -65 15v12q0 32 33 59q30 25 63 29q3 -2 6 -3l7 -4q10 -7 28 -11q3 -11 3 -20zM431 497q0 -60 -80 -60q-22 0 -39 7v10q0 9 20 33q16 20 25 20q19 0 37 12q17 -1 35 -8q2 -8 2 -14z" />
    <glyph glyph-name="nine" unicode="9" horiz-adv-x="804" 
d="M436 476q0 38 -37 90q-9 12 -42 32t-47 20q-45 0 -76 -36t-31 -82q0 -115 125 -115q14 0 39.5 6t34 13t21.5 34t13 38zM663 342q0 -86 -59 -226q-52 -123 -115 -204q-84 -108 -162 -108l-15 4l-85 147q147 154 147 221q-54 -12 -89 -12q-145 0 -220 111q-65 95 -65 247
q0 138 83 211q79 70 218 70q181 0 279 -147q83 -125 83 -314zM130 165q66 -66 169 -77q-39 -52 -110 -128l103 -178l6 -1l46 -46l30 -8q164 0 304 328h1q61 143 61 237q0 198 -87 329q-24 36 -49 61l-16 16q-105 135 -287 135q-151 0 -239 -79q-92 -82 -92 -232
q0 -158 71 -264q31 -46 69 -73zM406 476q0 -5 -10.5 -26t-14.5 -25q-9 -2 -23 -5q-2 -1 -4 -1l-26 -4q-27 0 -45 6q-3 13 -3 29q0 34 23.5 62.5t56.5 28.5q5 0 28 -13q18 -30 18 -52z" />
    <glyph glyph-name="colon" unicode=":" horiz-adv-x="392" 
d="M233 151q0 -55 -29 -88t-83 -33q-42 0 -75 33t-33 75t35 70.5t77 28.5q38 0 71 -24q37 -26 37 -62zM220 403q0 -44 -26 -76q-28 -35 -71 -35q-49 0 -84 24q-39 27 -39 74q0 64 36 91q30 22 97 24q41 1 64 -29.5t23 -72.5zM61 252q-16 -7 -32 -21q-46 -41 -46 -93t42 -96
q14 -15 24 -20l28 -28q41 -41 94 -41q67 0 103 40t36 108q0 40 -28 67l-32 31q-10 17 -24 28q21 10 39 33q32 40 32 93q0 62 -39 100l-32 31l-2 4q-1 2 -3 4q-34 43 -84 43h-5q-162 0 -162 -145q0 -64 52 -98z" />
    <glyph glyph-name="semicolon" unicode=";" horiz-adv-x="432" 
d="M271 116q0 -63 -33 -123q-38 -70 -96 -70q-12 0 -26.5 11.5t-14.5 22.5q0 13 10.5 38.5t10.5 37.5q0 20 -26 28q-38 12 -46 16q-26 14 -26 49q0 39 36.5 85.5t74.5 46.5q49 0 92.5 -46t43.5 -96zM250 434q0 -50 -37.5 -85t-87.5 -35q-47 0 -84 27q-41 29 -41 75
q0 45 31 82.5t75 37.5q17 0 66.5 -14t55.5 -23q22 -33 22 -65zM57 284q10 -10 18 -15v-1q1 0 1 -1q-16 -11 -37 -38q-45 -58 -45 -103q0 -52 41 -75l34 -34q2 -4 13 -12q-11 -28 -11 -48q0 -27 38 -52l34 -34q25 -25 49 -25q74 0 120 84q36 66 36 136q0 62 -51 113l-27 27
l-10 12q-5 6 -29 30q27 11 50 33q46 45 46 103q0 16 -9.5 44t-19.5 38l-38 38q-10 21 -34 32q-9 4 -46 15q-51 15 -74 15q-57 0 -96.5 -46t-39.5 -104q0 -31 15.5 -60t41.5 -42z" />
    <glyph glyph-name="less" unicode="&#x3c;" horiz-adv-x="529" 
d="M374 133q0 -146 -21 -203q-138 132 -267 269l-48 51q-18 19 -38 42q7 33 154 214t179 197q7 -14 7 -45v-17l-2 -46q-1 -23 -1 -17q0 -26 4 -41q-133 -181 -133 -220q0 -8 83 -88t83 -96zM414 -168q37 99 37 251q0 29 -52 78l-16 15q-14 21 -76 78q-5 5 -21 19
q11 42 134 208q-6 24 -6 47v16q0 11 1.5 32t1.5 32q0 40 -22 82l-44 44q-4 6 -5 10q-59 -32 -211 -215.5t-167 -243.5q90 -104 228 -242l45 -45q24 -23 91 -89q27 -26 33 -32v2q29 -29 49 -47zM198 45l19 -20l-39 39q9 -7 20 -19z" />
    <glyph glyph-name="equal" unicode="=" horiz-adv-x="678" 
d="M500 151q-42 -21 -382 -21q-34 0 -107 14q-3 12 -2 52l2 64q-2 2 -4 25q-2 15 4 16l50 9h103q25 0 68 5q51 6 68 6q33 0 98 -6l98 -9q-1 -22 0 -60t4 -95zM506 383q-229 0 -506 61q11 114 11 150q36 11 46 11q56 0 178 -13q112 -12 178 -12q34 0 82 5q19 -29 19 -148
q0 -6 2 -17.5t2 -17.5q0 -19 -12 -19zM21 373q86 -20 164 -32q-7 -1 -12 -1h-118l-52 -9q-26 -9 -26 -40v-9q1 -2 1 -3v-4q1 -11 3 -19l-2 -60v-21q0 -32 7 -58q3 0 8 -2l45 -45q88 -17 129 -17q346 0 394 24l15 25q-4 86 -4 130v49l-25 25h8q39 0 39 46q0 6 -2 17.5
t-2 17.5q0 128 -32 177l-41 41q-2 4 -7 12q-61 -7 -98 -7q-63 0 -175 12q-122 13 -181 13q-13 0 -76 -19q0 -62 -13 -196q3 0 8 -2z" />
    <glyph glyph-name="greater" unicode="&#x3e;" horiz-adv-x="496" 
d="M374 292l-55 -65q-52 -62 -150 -171q-22 -25 -70 -66q-28 -18 -79 -60q-20 160 -20 203q0 14 83 96t83 88q0 39 -134 220q7 35 5 83q-1 18 0 52q0 9 1 31q32 -13 180.5 -195t155.5 -216zM49 -172q42 32 113 88q59 47 150 153q12 14 47 54l86 102l5 23q-10 40 -163 227
q-21 26 -105 119q-117 130 -171 153q-4 -44 -4 -95v-49q0 -31 -7 -73q125 -170 136 -212l-73 -68q-93 -86 -93 -117q0 -47 27 -261l4 4z" />
    <glyph glyph-name="question" unicode="?" horiz-adv-x="726" 
d="M394 -35q0 -65 -52 -112.5t-117 -47.5q-63 0 -112 38q-53 40 -53 102q0 68 51 106q45 34 116 34h31q6 -1 7 -1h1q53 0 90.5 -33.5t37.5 -85.5zM366 506q0 95 -112 95q-32 0 -57.5 -29t-25.5 -61q0 -11 -3.5 -33t-3.5 -33q0 -10 1 -14q-88 -11 -107 -11q-51 0 -58 3
q0 189 64 277q76 103 258 103q93 0 186.5 -86.5t93.5 -178.5q0 -77 -63 -129q-104 -69 -116 -79q-65 -56 -65 -116q0 -33 -3 -51h-245q0 123 66 194q34 37 124 84q66 35 66 65zM128 -212q60 -60 147 -60q76 0 136 55.5t60 131.5q0 59 -41 99l-28 27q-18 29 -44 45h70
q7 37 7 78q0 54 53 92q74 53 114 79q77 65 77 153q0 103 -92 185l-9 8q-22 29 -51 56q-102 96 -205 96q-199 0 -282 -114q-70 -96 -70 -316q3 -1 8 -3l45 -45q31 -12 85 -12h20q-48 -76 -48 -210h6l38 -40q-15 -7 -26 -15v1q-68 -51 -68 -134q0 -82 69 -128zM336 506
q0 -13 -50 -38q-9 -5 -39 -22q0 26 16 52t41 26q16 0 30 -3q2 -10 2 -15zM321 553z" />
    <glyph glyph-name="at" unicode="@" horiz-adv-x="1115" 
d="M540 360q0 28 -15 51q-17 27 -44 27q-42 0 -76.5 -43.5t-34.5 -87.5q0 -25 19 -44t44 -19q43 0 75 36.5t32 79.5zM987 373q0 -107 -72 -204q-78 -106 -181 -106q-113 0 -158 96q-80 -93 -169 -93q-88 0 -142 69q-50 63 -50 153q0 116 86.5 197t203.5 81q102 0 130 -82
q2 -11 7 -38l22 -113q16 -81 96 -81q49 0 74 67q20 53 20 107q0 125 -103 193q-88 59 -219 59q-176 0 -291 -131q-111 -126 -111 -304q0 -125 125 -213q114 -80 242 -80q69 0 239 45q27 -57 40 -97q-33 -40 -170 -69q-118 -25 -191 -25q-188 0 -304 128q-111 123 -111 313
q0 291 178 431q161 127 459 127q170 0 265 -135q85 -119 85 -295zM159 -151q122 -122 306 -122q79 0 197 26q149 33 195 90q-14 43 -57 134l-9 9q111 3 196 117q77 103 77 220q0 184 -90 311q-24 34 -42 50l-10 9q2 -2 3 -2l-10 9q-103 133 -278 133q-311 0 -480 -135
q-187 -149 -187 -453q0 -200 121 -332q27 -29 55 -51zM740 288l1 -1l-4 18q0 1 -25 136q-12 34 -36 59l-7 6q2 -2 3 -2l-26 25q-40 62 -130 67q40 5 66 5q120 0 204 -55q38 -50 38 -120q0 -39 -14 -85q-18 -59 -50 -59h-10q-5 0 -10 2v4zM207 174q31 -71 81 -102l23 -23
q60 -60 146 -60q87 0 163 73l23 -23q19 -19 34 -28q-136 -31 -180 -31q-116 0 -218 69h1q-13 9 -37 28q-32 50 -36 97zM510 356q-1 -24 -19.5 -48.5t-41.5 -31.5q5 22 23 46t38 34z" />
    <glyph glyph-name="A" unicode="A" horiz-adv-x="978" 
d="M633 -195l-86 151q-46 81 -78 154q-4 -1 -84 -11q-64 -8 -74 -21q-14 -15 -28 -119q-15 -117 -29 -143l-99 16q-98 16 -155 47l66 460q39 274 97 455l57 -1q23 0 63 1l85 3l147 7q226 -449 374 -862zM442 284q-14 67 -100 221q-2 -38 -14.5 -112t-14.5 -112l83 -1
q26 0 46 4zM20 -186q87 -46 196 -62l40 -6q21 -3 63 -10q26 52 41 169q12 96 21 105q3 5 57 12q9 1 37 4q21 -40 46 -84l101 -177l3 2l48 -48l299 160q-160 442 -391 903l-43 43q-4 6 -5 10l-166 -8q-83 -4 -127 -4h-20l-79 1q-65 -206 -105 -481l-69 -481q4 -1 11 -5z" />
    <glyph glyph-name="B" unicode="B" horiz-adv-x="792" 
d="M398 156q0 11 -10.5 33.5t-18.5 31.5q-15 16 -61 23q-26 4 -68 10q-6 -68 -6 -128q0 -48 29 -48q37 0 82 20q53 24 53 58zM387 536q0 45 -134 45h-24q0 -36 8 -112q9 0 25.5 -1.5t25.5 -1.5q99 0 99 70zM0 764q0 30 203 30h85q8 0 16 -1h13q119 0 212 -47
q115 -58 115 -168q0 -58 -44 -120q-25 -35 -90 -96q65 -13 98 -73q29 -52 29 -123q0 -187 -136 -281q-117 -81 -312 -81q-59 0 -82 5q-50 11 -61 47q-34 110 -34 567q0 57 -6 170.5t-6 170.5zM-30 764q0 -57 6 -170.5t6 -170.5q0 -467 35 -576q10 -31 39 -50l35 -35
q35 -35 148 -35q206 0 331 89q144 102 144 300q0 116 -64 177l-25 24q-6 8 -9 11l33 35q11 12 23 29q49 71 49 136q0 86 -57 141l-27 26q-33 46 -95 78q-97 50 -225 50h-10q-8 1 -16 1h-88q-233 0 -233 -60zM368 156q0 -15 -35 -30q-9 -4 -22 -9l3 55q10 -2 37 -5h3
q8 -2 11 -2q3 -8 3 -9zM307 504h14q7 0 14 -1q-13 -5 -28 -7v8z" />
    <glyph glyph-name="C" unicode="C" horiz-adv-x="783" 
d="M649 -80q-145 -115 -260 -115q-167 0 -279 124q-110 121 -110 289q0 214 132 393q142 193 353 193q126 0 145 -52l-19 -54q-27 -78 -55 -130q-42 -6 -114 -30q-77 -25 -107 -45q-40 -27 -63 -84q-20 -50 -20 -104q0 -136 110 -184q76 -33 228 -29zM329 255q0 48 17 92
q19 50 54 74q29 20 108 44q69 21 115 28q11 21 26 54l21 51h1q7 16 17 44l21 59q-7 21 -23 36l-34 33q-40 64 -167 64q-225 0 -377 -205q-138 -187 -138 -411q0 -176 119 -307q30 -33 54 -51l14 -14q118 -118 282 -118q125 0 277 121l9 30l-65 190l-46 45l-2 8h-15
q-10 -1 -15 -1h-26q-138 0 -208 41q-19 35 -19 93z" />
    <glyph glyph-name="D" unicode="D" horiz-adv-x="789" 
d="M255 111q50 0 117 82t67 133q0 68 -60.5 136.5t-127.5 68.5h-34q-13 -74 -13 -234v-38q0 -6 1 -16v-132h50zM651 287q0 -197 -142.5 -339.5t-339.5 -142.5q-42 0 -164 20q0 10 -3 66q-2 38 -2 65q0 115 8 346t8 346q0 80 -3 152q15 -2 40 1q31 3 40 3q252 0 401 -131
q157 -137 157 -386zM28 -248q145 -24 191 -24q209 0 359 150t150 359q0 242 -142 384l-16 16q-14 16 -56 58q-151 139 -421 139q-14 0 -43 -3q-19 -2 -23 -2t-11 1h-34q0 7 1 -41l3 -141q0 -115 -8 -346t-8 -346q0 -9 1 -26.5t1 -26.5v-13q0 -5 1 -14v-15l1 -28q1 -28 1 -22
v-12q1 0 4 -1h4zM282 193q-1 11 -1 17v37q0 132 9 207h11q29 0 58 -19q50 -60 50 -109q0 -38 -62 -113q-37 -44 -65 -63v43z" />
    <glyph glyph-name="E" unicode="E" horiz-adv-x="712" 
d="M567 574q-105 -18 -207 -18q-34 0 -64 2q-2 -46 -5 -138l160 -25q0 -111 -21 -166q-22 -9 -91 -24l-54 -12q-27 -6 -39 -10v-111q54 -4 163 -13q117 -10 117 -29v-209l-422 -9q-12 0 -100 9l15 448q7 223 50 446q9 48 15 88h249q157 0 248 -16zM613 812q-126 21 -280 21
h-275q-11 -60 -16 -93l-3 -19q-44 -280 -50 -451l-16 -476h7l46 -47q115 -12 128 -12l449 10v235q0 12 -10 22l-39 39q-15 38 -141 47q-41 3 -90 6v18q18 4 132 32q30 7 46 14q27 70 27 210l-47 47v6l-111 16q0 14 2 42h38q105 0 233 22l17 259l-48 47z" />
    <glyph glyph-name="F" unicode="F" horiz-adv-x="678" 
d="M251 176q-2 -12 -1 -38q0 -13 2 -48l4 -54q1 -14 1 -32v-139q-21 -24 -120 -40q-74 -12 -133 -12l10 359q12 409 9 601q227 33 426 31l90 -1q23 -34 23 -99v-106q-32 -6 -142 -14q-91 -6 -141 -20q-15 -47 -15 -108v-22q17 -11 86 -17q79 -7 85 -9q17 -159 17 -199
q0 -26 -88 -29zM350 491q45 9 122 16l96 9q52 5 71 9v130q0 72 -36 125l-43 42q-2 4 -6 11l-123 1q-188 2 -438 -34v-84q0 3 1 -18v-12q0 -198 -10 -513l-6 -189q-2 -50 -3 -108l-1 -41v-52h6l47 -47q89 0 164 12q107 17 143 57v149q0 29 -5 88q-2 23 -2 26v32l88 3
q114 4 114 56q0 41 -19 220l-47 46v6q-43 16 -111 16h-9q1 15 7 44zM278 456z" />
    <glyph glyph-name="G" unicode="G" horiz-adv-x="807" 
d="M622 478q22 -246 22 -608q0 -25 -82 -47q-67 -18 -106 -18q-200 0 -328 132t-128 333q0 269 120 399q125 134 392 134q35 0 125 -42q-9 -104 -61 -172l-44 13q-27 8 -46 8q-117 0 -184 -115q-57 -98 -57 -231q0 -115 35 -158q29 -35 136 -67v254q-30 2 -90 8
q-16 23 -16 80q0 23 11 69q60 19 148 22zM622 508l-154 -6q-15 -1 -35 -3q44 34 103 34q12 0 37 -7q50 -14 66 -14q66 87 77 215l-48 47q0 2 1 3v2q-116 54 -157 54q-279 0 -413 -143q-129 -139 -129 -420q0 -214 158 -372q9 -9 20 -17l17 -17q136 -136 341 -136
q44 0 113 19q102 28 102 73q0 364 -22 610l-47 46v5zM361 225q8 -1 25 -3v-142q-19 6 -51 22q-13 38 -13 112v24q0 12 2 24z" />
    <glyph glyph-name="H" unicode="H" horiz-adv-x="821" 
d="M267 -184q-170 -12 -229 -12q-38 0 -38 51q0 657 73 943q92 4 133 3l71 -2q4 -70 4 -404q80 6 124 23q6 58 6 85v36q0 5 -1 48l-2 85q-1 47 15 97q69 16 152 31q17 3 42 3q20 -39 34 -398q10 -258 10 -442q0 -61 -12 -136l-225 -11q-18 15 -18 43q0 8 3 30q3 19 2 29
l-3 247l-147 -17v-110q0 -6 -1 -14v-42q0 -96 7 -166zM182 831h-25l-71 -2q-11 0 -37 -2q-79 -310 -79 -972q0 -57 34 -74l38 -38q16 -16 46 -16q61 0 231 12l25 30q-7 70 -7 163v42q1 8 1 13v87l40 4l3 -166l-2 -19q-3 -29 -3 -34q0 -41 38 -73h3l39 -39q2 -2 6 -5l3 -3
l257 12q16 102 16 162q0 184 -10 443q-14 361 -45 424l-44 44q-2 3 -4 9q-57 0 -122 -15q-45 -10 -60 -13l-45 -8h-4q-3 -1 -4 -1q-23 -71 -22 -125l3 -167q0 -6 -4 -63q-11 -4 -19 -5l-2 220q-1 58 -4 119l-51 50z" />
    <glyph glyph-name="I" unicode="I" horiz-adv-x="507" 
d="M374 626q0 -74 -57 -117q-51 -39 -127 -39q-74 0 -128 36q-62 41 -62 112q0 76 41 128q44 57 118 57q82 0 145 -47q70 -51 70 -130zM325 384q0 -61 4 -145l4 -84q1 -21 1 -60q0 -172 -10 -294q-144 -46 -293 -46l-5 100v134q0 203 26 391q22 11 274 11zM360 421h-2
q13 6 25 17q68 52 68 138q0 75 -53 128l-26 26q-20 27 -50 50q-70 53 -163 53q-86 0 -139 -66q-50 -61 -50 -149q0 -86 75 -138l23 -23q31 -31 61 -42q-85 -6 -105 -16q-28 -204 -28 -410v-135l6 -129h6l47 -47q177 0 344 53q12 145 12 314q0 40 -1 61l-4 84q-4 84 -4 140
l5 38l-48 47z" />
    <glyph glyph-name="J" unicode="J" horiz-adv-x="872" 
d="M325 -195q-307 0 -325 387q105 45 214 51v-16q0 -166 109 -166q92 0 128 199q20 111 20 274q0 62 -24 251q39 19 123 19q28 0 104 -16q50 -155 50 -409q0 -208 -94 -375q-112 -199 -305 -199zM291 177v45l-47 47v6q-144 -8 -275 -63q12 -272 148 -375l23 -23
q86 -86 235 -86q209 0 329 213l-1 1q98 171 98 387q0 259 -56 432l-46 45q0 3 -2 8q-87 20 -127 20q-95 0 -155 -31q26 -206 26 -269q0 -155 -20 -268q-31 -175 -98 -175q-13 0 -23 3q-9 29 -9 83z" />
    <glyph glyph-name="K" unicode="K" horiz-adv-x="879" 
d="M72 769q85 6 255 33v-28q0 -50 4 -120l4 -70q1 -18 1 -50q161 266 219 266l161 -55q-173 -268 -235 -438q62 -90 145 -217q108 -165 112 -212l-147 -24q-86 -14 -147 -30q-92 173 -158 328q-13 -39 -13 -92q0 -6 2 -34l7 -98q1 -14 1 -34q0 -55 -15 -89q-5 1 -135 1
q-79 0 -133 14l48 423q26 229 26 425q0 51 -2 101zM37 797q7 -54 7 -78v-51q0 -194 -26 -422l-51 -448q1 0 4 -1h3l46 -47q79 -21 163 -21q132 0 152 -4q25 56 25 119q0 24 -1 36l-4 49q14 -29 35 -69l38 -72q1 1 2 1t2 1l48 -48q74 20 165 35l172 28q-7 81 -118 250
q-63 95 -138 205q62 162 247 450l-48 48q2 2 3 4l-201 68q-58 0 -158 -138v92l-47 47v6l-120 -20q-80 -12 -168 -18z" />
    <glyph glyph-name="L" unicode="L" horiz-adv-x="662" 
d="M64 768q65 13 171 13h45q0 -103 -14 -313q-13 -195 -13 -313q0 -18 85 -18q24 0 74 2l50 2q54 2 54 -47v-32q-1 -6 -1 -7v-2q0 -32 9.5 -95t9.5 -95q0 -54 -176 -54q-28 0 -80 2l-52 2q-47 2 -226 -12zM35 789l-67 -1020h3q2 1 3 1l47 -48q22 1 79 5l73 5q72 5 102 4
l133 -4q203 0 203 81q0 32 -9.5 94.5t-9.5 94.5v7q0 5 1 13v22q0 35 -18 53l-37 37q-20 39 -77 37l-50 -2q-2 0 -4 -1h-28q-11 -1 -15 -1h-34q4 88 13 249l6 103q2 26 5 95l2 81q1 41 1 63l-47 47v6h-75q-114 0 -177 -14z" />
    <glyph glyph-name="M" unicode="M" horiz-adv-x="1182" 
d="M487 341q40 81 60 222q26 183 39 229l240 8q90 3 121 3q16 -42 47 -455l23 -304q6 -77 11 -196q-26 -12 -70 -12h-214q-20 111 -48 333q-21 -96 -82 -322q-29 -6 -177 -19q-12 -1 -41 -4q-21 52 -50 194q-25 125 -60 192l-6 -243q-2 -81 -2 -133q0 -22 -36 -22
q-11 0 -33.5 4t-33.5 4q-2 0 -102 -3q-68 -2 -73 0q25 103 34 304l16 348q8 176 48 265q54 20 126 28q51 5 129 15q50 -186 131 -436h3zM375 810q-30 -3 -87 -10l-38 -5q-8 -1 -29 -3q-73 -8 -146 -34q-46 -99 -55 -288l-10 -203q-2 -38 -6 -145q-8 -195 -37 -314
q13 -11 20 -16l33 -33q20 -20 51 -20h22q4 0 31 1q81 3 101 3q11 0 33.5 -4t33.5 -4q63 0 63 49v68q10 -34 22 -62q2 1 5 1l47 -47q35 7 98 11q75 5 99 8q28 4 59 10l24 88q4 -29 9 -55h6l47 -47h237q49 0 98 23q-5 107 -28 423l-7 95q-30 408 -54 480l-46 45q0 3 -2 8
q-17 0 -52 -1l-212 -6q-10 0 -142 -5q-15 -54 -46 -254q-7 -47 -16 -84q-51 168 -78 274l-47 46v4q-1 2 -1 3z" />
    <glyph glyph-name="N" unicode="N" horiz-adv-x="940" 
d="M295 803l84 -276q50 -163 98 -270q12 37 12 116q0 44 -7 148q-6 89 -6 148q0 17 2.5 49.5t2.5 49.5l298 1q-1 -14 -6 -77q-9 -107 -9 -130q0 -151 7 -364q8 -243 8 -363q-226 -11 -346 -23q-47 116 -141 370q-14 -42 -4 -345q1 -32 -268 -32q-20 23 -20 69q0 156 17 451
l26 451zM14 804l-27 -477q-17 -300 -17 -453q0 -57 37 -99h4l47 -47q310 0 307 60q0 17 -2 66l-2 59q25 -68 53 -133h2q1 1 2 1l48 -48l79 7q144 13 311 19v72q0 83 -8 318q-7 206 -7 363q0 41 9 128l3 29l4 58q1 14 1 19l-47 47v6l-360 -1q0 -14 -2 -43t-2 -43v-5
q-1 -11 -1 -21v-17q0 -117 8 -181l-90 294l-46 46l-2 7z" />
    <glyph glyph-name="O" unicode="O" horiz-adv-x="1102" 
d="M676 364q0 79 -41 129q-44 54 -122 54q-83 0 -151 -83q-64 -79 -64 -164q0 -81 51 -126t133 -45q89 0 144 75q50 68 50 160zM960 278q0 -194 -131 -332q-133 -141 -325 -141q-227 0 -363 123q-141 128 -141 352q0 122 82 249q72 113 183 191q119 84 235 84
q238 0 355 -148q105 -133 105 -378zM155 -122q150 -150 399 -150q204 0 345 149q138 145 138 351q0 289 -142 431l-17 17q-125 158 -378 158q-125 0 -254 -91q-117 -82 -192 -201q-84 -132 -84 -262q0 -237 152 -372q11 -8 20 -17zM646 364q0 -81 -41 -139q-46 -66 -123 -66
q-53 0 -94 25q-13 27 -13 66q0 73 58.5 146.5t129.5 73.5q32 0 61 -13q22 -39 22 -93z" />
    <glyph glyph-name="P" unicode="P" horiz-adv-x="863" 
d="M294 390q13 4 100 37q67 25 67 64q0 19 -22 39t-41 20q-49 0 -123 -8q8 -22 13 -74zM396 804q143 0 242 -64q116 -75 116 -211q0 -198 -257 -296q-51 -19 -196 -73q-1 -12 -1 -27q0 -42 8 -122q12 -120 12 -148l-126 -24q-30 -6 -173 -34q-21 36 -21 117q0 136 16 412
q17 293 17 413q171 57 363 57zM396 834q-202 0 -393 -65q0 -63 -5 -182l-5 -119q-2 -36 -7 -132q-16 -280 -16 -414q0 -93 35 -151q2 1 5 1l47 -47q2 0 99 19l241 46q0 56 -12 174q-8 79 -8 120v7q52 20 138 52q11 3 41 14q120 44 191 119q84 88 84 203q0 117 -76 193l-4 3
l-15 14q-102 145 -340 145zM359 468q20 1 59 4q-6 -5 -57 -25v10q0 6 -2 11zM425 506zM751 675q0 1 -1 1z" />
    <glyph glyph-name="Q" unicode="Q" horiz-adv-x="1063" 
d="M587 496q0 89 -97 89q-105 0 -184 -96q-75 -91 -75 -199q0 -44 25 -84q28 -46 69 -46q9 0 68 3q-68 116 -116 151q113 143 138 143q22 -17 63 -52q32 -27 79 -59q30 100 30 150zM888 533q0 -102 -28 -197q-32 -110 -92 -175q58 -37 86 -59q56 -44 63 -77
q-128 -128 -197 -219q-105 79 -181 144q-69 -70 -223 -70q-146 0 -234 109q-82 102 -82 251q0 224 107 373q124 173 347 173q434 0 434 -253zM138 -105q92 -92 228 -92q147 0 223 61q55 -46 86 -69l100 -76q50 65 111 131l26 28q1 1 23 26l1 -1l33 35q17 18 27 28
q-10 45 -50 85l-4 3l-24 24q-19 25 -45 47q-2 1 -6 4q98 141 98 354q0 109 -66 172l-25 24q-98 137 -420 137q-239 0 -371 -185q-113 -158 -113 -391q0 -157 90 -268q29 -36 60 -59zM557 496q0 -34 -18 -101q-20 12 -51 39q-36 32 -50 41q50 33 102 33q8 0 16 -2q1 -3 1 -10
zM340 190q-6 -1 -9.5 -0.5t-5.5 0.5h-8q-9 21 -9 43q8 -10 16 -21z" />
    <glyph glyph-name="R" unicode="R" horiz-adv-x="905" 
d="M466 491q0 42 -27 65t-70 23q-25 0 -38 -9q-6 -49 -17 -204q52 0 100 36q52 38 52 89zM608 -163q-84 -20 -152 -23l-31 57q-25 47 -97 180q-14 26 -40 62q-1 -44 -4 -168q-4 -136 -33 -140q-15 5 -43 5h-20q-13 0 -39 -1.5t-39 -1.5q-79 0 -109 27l-1 135q-1 161 23 373
q31 271 33 373q149 89 362 89q123 0 214 -46q115 -58 115 -169q0 -145 -52.5 -232t-180.5 -158l142 -159q100 -112 103 -167zM24 -228q41 -42 136 -42h13q9 0 19 1h2q7 0 22 1t22 1h20q23 0 40 -6q63 10 63 167v33q0 -2 2 -4q42 -82 76 -140h5l47 -47q84 4 173 25l173 41
q-4 87 -111 206l-120 133q119 71 170 165q48 91 48 233q0 86 -58 142l-24 23q-33 48 -97 81q-95 49 -227 49q-223 0 -392 -102q-2 -117 -33 -387q-23 -200 -23 -357v-19l1 -148q6 -5 19 -14zM436 491q0 -33 -37 -63q2 24 7 73q4 1 13 1q8 0 16 -2q0 -2 1 -4v-5z" />
    <glyph glyph-name="S" unicode="S" horiz-adv-x="826" 
d="M10 149q38 -1 92 -1h124q6 -36 9 -46q9 -29 30 -57q5 -1 9 -1h10q67 0 67 69q0 40 -76 91q-38 25 -75 50q-43 30 -71 56q-81 76 -93 178q21 154 116.5 234.5t252.5 80.5q114 0 197.5 -76.5t83.5 -189.5q1 0 2 -1l-2 -2v3q-54 -16 -230 -54l-24 60q-17 33 -50 33
q-27 0 -49.5 -19t-22.5 -46q0 -40 81 -84q110 -60 151 -102q81 -84 81 -221q0 -135 -88 -217t-224 -82q-150 0 -221 41q-90 52 -90 195q0 72 10 108zM678 686l-15 14q-95 133 -258 133q-170 0 -273 -88t-126 -256q14 -124 109 -207q2 -2 10 -9l25 -24q1 -3 6 -5l4 -4
q11 -11 82 -62h-132h-21q-34 1 -29 1h-50l-29 -22q-11 -37 -11 -116q0 -151 90 -212l26 -26q75 -75 275 -75q145 0 242 91l-1 1q98 90 98 234q0 148 -89 240l-4 3h1l-20 20q-2 3 -25 29q-31 29 -72 56q56 9 191 43l90 28q-2 58 -27.5 116.5t-66.5 96.5zM418 496l19 -48
q3 0 5 1l41 -41q-34 22 -78 46q-11 4 -18 9q2 26 31 33zM299 125l-46 45q28 -21 57 -38q2 -2 7 -6q4 -8 4 -13q0 -25 -15 -34q-1 5 -3 20zM603 301zM666 697l3 -2q-1 1 -4 3zM336 11z" />
    <glyph glyph-name="T" unicode="T" horiz-adv-x="874" 
d="M212 509q-71 10 -212 29q15 87 38 235q112 16 332 16q52 0 191 -11l137 -11q32 -2 53 -3q9 -15 9 -108q0 -101 -7 -147q-61 -4 -299 -3l14 -337q7 -176 25 -336q-55 -8 -165 -15q-65 -4 -164 -13zM18 465l86 -11q6 -1 73 -11l-45 -672h2q2 1 3 1l48 -48l76 7q72 7 227 19
q48 4 85 9q0 1 -7 78l-8 89q-9 101 -13 194l-13 309h80q14 0 70 1l112 2q10 0 33 1q10 76 10 173q0 100 -21 135l-43 42q-1 6 -5 11q-60 2 -199 14q-128 11 -199 11q-234 0 -359 -19q-8 -51 -13 -81l-26 -154q0 -3 -8 -53q3 0 9 -2z" />
    <glyph glyph-name="U" unicode="U" horiz-adv-x="1000" 
d="M856 440q0 -266 -90 -429q-114 -206 -357 -206q-244 0 -339 242q-62 158 -62 452v175q0 11 7 58q5 35 2 57l223 15l44 -5q1 -57 -3 -217q-3 -120 -3 -217q0 -269 126 -269q87 0 123 176q21 103 21 246q0 40 -7 99q-13 113 -13 151q26 24 161 25l101 1q66 1 66 -354z
M355 315q0 66 3 199t3 199v60l-47 47v6l-73 8l-260 -17q7 -36 7 -44t-4 -37q-6 -43 -6 -62v-175q0 -503 197 -651l19 -19q101 -101 265 -101q259 0 381 220q93 168 93 442q0 309 -59 366l-36 35q-20 33 -47 33h-1l-101 -1q-145 -1 -191 -42q0 -44 10 -131.5t10 -131.5
q0 -145 -20 -240q-32 -152 -94 -152q-13 0 -23 3q-26 58 -26 186z" />
    <glyph glyph-name="V" unicode="V" horiz-adv-x="963" 
d="M828 745q0 -81 -93 -466q-91 -379 -129 -466q-19 -10 -58 -10q-139 0 -247 21l-152 483q-128 406 -149 427l247 18q21 -54 88 -291q52 -183 106 -284q13 38 18 100q3 44 11 100q5 36 45 209l29 125q13 54 18 84q34 9 86 9q46 0 172 -21zM845 810q-144 24 -197 24
q-59 0 -113 -14q-24 -114 -77 -351q-8 -34 -22 -112q-1 -3 -2 -18l-23 79q-65 231 -96 313l-45 45q-1 3 -3 8l-316 -31q113 -278 169 -455l158 -501q1 0 3 -1h3l46 -46q123 -24 268 -24q47 0 79 17q42 95 76 237l58 243q94 390 94 473l-13 61l-46 45z" />
    <glyph glyph-name="W" unicode="W" horiz-adv-x="1390" 
d="M0 749q166 37 252 51q29 -85 70 -237q45 -167 69 -238q33 79 57 226l37 231q5 2 101 -5q104 -8 148 -18q29 -73 63 -214l26 -109q10 -42 32 -107l51 226q26 115 37 229q129 4 300 20l33 -33l-141 -926l-421 -30q-2 8 -48 207q-29 123 -57 206q-13 -43 -36 -182
q-19 -111 -46 -179q-11 -1 -145 5l-142 6q-37 2 -59 52q-13 30 -28 102q-61 295 -153 717zM-35 770l159 -745q9 -44 29 -107q19 -42 48 -60l34 -34q23 -23 55 -23q10 0 141 -6q109 -5 135 -5h29q32 80 51 183l32 -134q6 -27 14 -56l4 1l48 -48l465 34l146 960l-48 47v2
q1 1 1 2l-54 54q-207 -19 -339 -22q-14 -123 -38 -249q-4 -14 -8 -35q0 -2 -2 -7q-27 116 -63 210l-45 44l-3 9q-58 13 -168 22q-75 6 -93 6q-21 0 -39 -18l-38 -240q-1 -8 -6 -34l-6 -33l-4 16q-40 160 -83 276l-45 45q-1 2 -3 8q-77 -11 -197 -37l-83 -18z" />
    <glyph glyph-name="X" unicode="X" horiz-adv-x="1097" 
d="M30 -158q64 124 187 372q-57 126 -120 269q-97 221 -97 247q0 27 100 39q58 7 126 9q71 -100 199 -353q41 103 101 264q21 55 38 114q311 -59 311 -91q0 -43 -93 -224q-113 -220 -120 -241l167 -202q128 -155 134 -195q-152 -33 -260 -31l-48 1l-194 248
q-44 -51 -68 -125l-45 -138q-134 2 -318 37zM51 -246q44 -5 183 -15q150 -11 184 -11l29 89q12 38 24 75q15 44 33 72l137 -174h4l47 -47l71 -1q103 -1 281 37q-10 72 -144 233l-157 189q40 81 113 225q96 188 96 236q0 10 -9 19l-40 40q-24 53 -360 117q-27 -87 -45 -137
q-2 -5 -69 -181l-66 119q-25 46 -73 116l-40 39q-3 4 -9 14q-113 -3 -157 -10q-114 -18 -114 -68q0 -29 99 -259q62 -143 115 -257q-125 -254 -199 -393q27 -31 34 -56q2 -8 32 -11z" />
    <glyph glyph-name="Y" unicode="Y" horiz-adv-x="1081" 
d="M363 -155v88q0 23 -1 133l-2 219l-183 222q-92 111 -177 227q21 5 162 21q158 18 161 17q-5 1 -12 2h-10q2 -2 11 -3q51 -49 100 -125q21 -33 86 -136q39 79 114 273q207 5 355 21q-11 -53 -73 -148l-159 -245q-9 -13 -62 -117l3 3q19 0 19 -432q0 -22 -5 -60
q-30 6 -79 6q-9 0 -46 -2l-130 -7q-14 -1 -40 4t-38 5q6 23 6 34zM329 -209l73 -69q-5 0 9 1t16 1h11q29 0 48 1l130 7q37 2 45 2q40 0 102 -11q9 61 9 92q0 323 -29 419l4 -2l41 77q5 10 20 37q34 55 158 245q64 98 85 194l-47 47q0 4 1 6q-191 -21 -414 -25l-52 -130
q-22 -54 -40 -98q-4 10 -14 25q-57 86 -92 118l-9 8l-25 30q-9 11 -27 27l-6 2l-1 1l3 6h-6q-14 0 -49 -4l-114 -13q-68 -8 -105 -13q-58 -8 -104 -21l42 -56q85 -114 162 -207l176 -214l3 -429q0 -34 -4 -54l2 27z" />
    <glyph glyph-name="Z" unicode="Z" horiz-adv-x="924" 
d="M434 534q-40 2 -128 0q-44 -1 -64 -1h-63q-108 0 -158 14q8 62 19 234q206 22 467 22q79 0 189 -12q21 -50 35 -135q13 -78 13 -140q0 -4 -138 -150q-86 -91 -224 -248q6 -1 56 0q29 0 119 2l176 4q31 1 40 -18q5 -11 5 -44q0 -123 -22 -175q-35 -83 -138 -83
q-37 0 -93 5q-81 6 -93 7q-35 2 -52 2q-57 0 -172 -7t-172 -7q-36 0 -36 185v101zM-30 -25q0 -177 51 -198l38 -38q12 -12 27 -12q57 0 172 7t172 7q35 0 93 -5l93 -8q12 -1 52 -1q120 0 162 100l1 -1q24 57 24 186q0 52 -19 71l-37 37q-19 35 -67 34l-176 -4q-5 -1 -9 -1
h-9l138 148q145 156 145 169q0 167 -56 300l-45 44l-3 9q-128 14 -210 14q-272 0 -495 -24l-6 -81q-2 -22 -7 -80l-6 -71q-2 -20 -5 -52q6 -2 7 -2l46 -46q61 -17 231 -21q33 -1 44 0l-346 -354v-127zM39 -227v1l47 -47z" />
    <glyph glyph-name="bracketleft" unicode="[" horiz-adv-x="531" 
d="M377 18q-4 -19 -1 -62q4 -52 3 -72l-3 -76q-330 0 -364 18q-12 142 -12 193v353q0 267 41 402q27 17 91 17h96q97 0 141 12q4 -14 5 -48q1 -21 0 -80q-1 -94 -11 -131q-11 -3 -69 -5q-43 -2 -67 -14l-7 -375q-1 -57 9 -130zM378 48h-80q-1 13 -1 26v26l6 356q19 4 42 6
l54 4q17 1 36 4q16 64 16 155v40q0 69 -13 121l-46 46q-2 4 -2 8q-66 -19 -162 -19h-97q-68 0 -115 -27q-46 -148 -46 -422v-353q0 -67 13 -212q6 -2 9 -4l44 -44q53 -28 416 -28l4 113q1 19 -3 64q-1 12 -1 17v15q0 17 1 21l-26 34l-37 36z" />
    <glyph glyph-name="backslash" unicode="\" horiz-adv-x="696" 
d="M570 -172q0 -4 -2 -4.5t-2 -4.5q-17 -1 -34 -1h-31q-139 0 -184 22l-172 509q-141 417 -141 454q52 -7 203 -39q36 -75 198 -489q165 -422 165 -447zM344 -229q60 -30 207 -30h45l26 1q26 1 21 1q0 11 -2 13l-1 1q7 9 7 21q0 26 -167 457l-98 253q-51 130 -106 249
l-44 43q-2 6 -4 10q-110 23 -207 40l-47 8q0 -77 142 -499l175 -520q3 -1 8 -4z" />
    <glyph glyph-name="bracketright" unicode="]" horiz-adv-x="542" 
d="M382 18q0 -28 -4 -75q-6 -61 -7 -75q-2 -32 -1 -42q-38 -15 -90 -15q-19 0 -56.5 2.5t-56.5 2.5q13 0 -127 -7q-20 -1 -34 -1q-3 0 -5 107l-1 55v53l104 -8q14 -1 49 5q9 61 9 130q0 72 -7 375q-23 12 -67 15l-69 4q-19 75 -19 204l13 55q92 -23 189 -23h3q3 0 11 1h42
q69 0 93 -36t30 -198q1 -39 1 -202v-327zM48 468l79 -5l5 -313q1 -47 -6 -103q-6 -2 -10 -2h-12l-134 10v-69l2 -146q6 -56 27 -61l42 -42q6 -6 15 -6q-7 0 129 7q20 1 32 1h16q16 0 48.5 -2.5t48.5 -2.5q57 0 117 24v31q0 4 2 36l3 48l4 52q3 28 3 43v327q0 218 -7 298
q-9 102 -43 135l-35 34q-7 12 -13 18q-31 31 -103 31h-39q-6 -1 -8 -1h-14q-86 0 -206 30l-21 -89q0 -137 25 -236l6 -1zM404 732z" />
    <glyph glyph-name="a" unicode="a" horiz-adv-x="978" 
d="M633 -195l-86 151q-46 81 -78 154q-4 -1 -84 -11q-64 -8 -74 -21q-14 -15 -28 -119q-15 -117 -29 -143l-99 16q-98 16 -155 47l66 460q39 274 97 455l57 -1q23 0 63 1l85 3l147 7q226 -449 374 -862zM442 284q-14 67 -100 221q-2 -38 -14.5 -112t-14.5 -112l83 -1
q26 0 46 4zM20 -186q87 -46 196 -62l40 -6q21 -3 63 -10q26 52 41 169q12 96 21 105q3 5 57 12q9 1 37 4q21 -40 46 -84l101 -177l3 2l48 -48l299 160q-160 442 -391 903l-43 43q-4 6 -5 10l-166 -8q-83 -4 -127 -4h-20l-79 1q-65 -206 -105 -481l-69 -481q4 -1 11 -5z" />
    <glyph glyph-name="b" unicode="b" horiz-adv-x="792" 
d="M398 156q0 11 -10.5 33.5t-18.5 31.5q-15 16 -61 23q-26 4 -68 10q-6 -68 -6 -128q0 -48 29 -48q37 0 82 20q53 24 53 58zM387 536q0 45 -134 45h-24q0 -36 8 -112q9 0 25.5 -1.5t25.5 -1.5q99 0 99 70zM0 764q0 30 203 30h85q8 0 16 -1h13q119 0 212 -47
q115 -58 115 -168q0 -58 -44 -120q-25 -35 -90 -96q65 -13 98 -73q29 -52 29 -123q0 -187 -136 -281q-117 -81 -312 -81q-59 0 -82 5q-50 11 -61 47q-34 110 -34 567q0 57 -6 170.5t-6 170.5zM-30 764q0 -57 6 -170.5t6 -170.5q0 -467 35 -576q10 -31 39 -50l35 -35
q35 -35 148 -35q206 0 331 89q144 102 144 300q0 116 -64 177l-25 24q-6 8 -9 11l33 35q11 12 23 29q49 71 49 136q0 86 -57 141l-27 26q-33 46 -95 78q-97 50 -225 50h-10q-8 1 -16 1h-88q-233 0 -233 -60zM368 156q0 -15 -35 -30q-6 -2 -22 -9l3 55q10 -2 37 -5h3
q8 -2 11 -2q3 -8 3 -9zM307 504h14q7 0 14 -1q-13 -5 -28 -7v8z" />
    <glyph glyph-name="c" unicode="c" horiz-adv-x="780" 
d="M649 -80q-145 -115 -260 -115q-167 0 -279 124q-110 121 -110 289q0 214 132 393q142 193 353 193q126 0 145 -52l-19 -54q-27 -78 -55 -130q-42 -6 -114 -30q-77 -25 -107 -45q-40 -27 -63 -84q-20 -50 -20 -104q0 -136 110 -184q76 -33 228 -29zM329 255q0 48 17 92
q19 50 54 74q29 20 108 44q69 21 115 28q11 21 26 54l21 51h1q7 16 17 44l21 59q-7 21 -23 36l-34 33q-40 64 -167 64q-225 0 -377 -205q-138 -187 -138 -411q0 -176 119 -307q30 -33 54 -51l14 -14q118 -118 282 -118q125 0 277 121l9 30l-65 190l-46 45l-2 8h-15
q-10 -1 -15 -1h-26q-138 0 -208 41q-19 35 -19 93z" />
    <glyph glyph-name="d" unicode="d" horiz-adv-x="789" 
d="M255 111q50 0 117 82t67 133q0 68 -60.5 136.5t-127.5 68.5h-34q-13 -74 -13 -234v-38q0 -6 1 -16v-132h50zM651 287q0 -197 -142.5 -339.5t-339.5 -142.5q-42 0 -164 20q0 10 -3 66q-2 38 -2 65q0 115 8 346t8 346q0 80 -3 152q15 -2 40 1q31 3 40 3q252 0 401 -131
q157 -137 157 -386zM28 -248q145 -24 191 -24q209 0 359 150t150 359q0 242 -142 384l-16 16q-14 16 -56 58q-151 139 -421 139q-14 0 -43 -3q-20 -2 -23 -2q-4 0 -11 1h-34q0 7 1 -41l3 -141q0 -115 -8 -346t-8 -346q0 -9 1 -26.5t1 -26.5v-13q0 -5 1 -14v-15l1 -28
q1 -28 1 -22v-12q1 0 4 -1h4zM282 193q-1 11 -1 17v37q0 132 9 207h11q29 0 58 -19q50 -60 50 -109q0 -38 -62 -113q-37 -44 -65 -63v43z" />
    <glyph glyph-name="e" unicode="e" horiz-adv-x="712" 
d="M567 574q-105 -18 -207 -18q-34 0 -64 2q-2 -46 -5 -138l160 -25q0 -111 -21 -166q-22 -9 -91 -24l-54 -12q-27 -6 -39 -10v-111q54 -4 163 -13q117 -10 117 -29v-209l-422 -9q-12 0 -100 9l15 448q7 223 50 446q9 48 15 88h249q157 0 248 -16zM613 812q-126 21 -280 21
h-275q-11 -60 -16 -93l-3 -19q-44 -280 -50 -451l-16 -476h7l46 -47q115 -12 128 -12l449 10v235q0 12 -10 22l-39 39q-15 38 -141 47q-41 3 -90 6v18q18 4 132 32q30 7 46 14q27 70 27 210l-47 47v6l-111 16q0 14 2 42h38q105 0 233 22l17 259l-48 47z" />
    <glyph glyph-name="f" unicode="f" horiz-adv-x="678" 
d="M251 176q-2 -12 -1 -38q0 -13 2 -48l4 -54q1 -14 1 -32v-139q-21 -24 -120 -40q-74 -12 -133 -12l10 359q12 409 9 601q227 33 426 31l90 -1q23 -34 23 -99v-106q-32 -6 -142 -14q-91 -6 -141 -20q-15 -47 -15 -108v-22q17 -11 86 -17q79 -7 85 -9q17 -159 17 -199
q0 -26 -88 -29zM350 491q45 9 122 16l96 9q52 5 71 9v130q0 72 -36 125l-43 42q-2 4 -6 11l-123 1q-188 2 -438 -34v-84q0 3 1 -18v-12q0 -198 -10 -513l-6 -189q-2 -50 -3 -108l-1 -41v-52h6l47 -47q89 0 164 12q107 17 143 57v149q0 29 -5 88q-2 24 -2 26v32l88 3
q114 4 114 56q0 41 -19 220l-47 46v6q-43 16 -111 16h-9q1 15 7 44zM278 456z" />
    <glyph glyph-name="g" unicode="g" horiz-adv-x="807" 
d="M622 478q22 -246 22 -608q0 -25 -82 -47q-67 -18 -106 -18q-200 0 -328 132t-128 333q0 269 120 399q125 134 392 134q35 0 125 -42q-9 -104 -61 -172l-44 13q-27 8 -46 8q-117 0 -184 -115q-57 -98 -57 -231q0 -115 35 -158q29 -35 136 -67v254q-30 2 -90 8
q-16 23 -16 80q0 23 11 69q60 19 148 22zM622 508l-154 -6q-15 -1 -35 -3q44 34 103 34q12 0 37 -7q50 -14 66 -14q66 87 77 215l-48 47q0 2 1 3v2q-116 54 -157 54q-279 0 -413 -143q-129 -139 -129 -420q0 -214 158 -372q9 -9 20 -17l17 -17q136 -136 341 -136
q44 0 113 19q102 28 102 73q0 364 -22 610l-47 46v5zM361 225q8 -1 25 -3v-142q-19 6 -51 22q-13 38 -13 112v24q0 12 2 24z" />
    <glyph glyph-name="h" unicode="h" horiz-adv-x="821" 
d="M267 -184q-170 -12 -229 -12q-38 0 -38 51q0 657 73 943q92 4 133 3l71 -2q4 -70 4 -404q80 6 124 23q6 58 6 85v36q0 5 -1 48l-2 85q-1 47 15 97q69 16 152 31q17 3 42 3q20 -39 34 -398q10 -258 10 -442q0 -61 -12 -136l-225 -11q-18 15 -18 43q0 8 3 30q3 19 2 29
l-3 247l-147 -17v-110q0 -6 -1 -14v-42q0 -96 7 -166zM182 831h-25l-71 -2q-11 0 -37 -2q-79 -310 -79 -972q0 -57 34 -74l38 -38q16 -16 46 -16q61 0 231 12l25 30q-7 70 -7 163v42q1 8 1 13v87l40 4l3 -166l-2 -19q-3 -29 -3 -34q0 -41 38 -73h3l39 -39q2 -2 6 -5l3 -3
l257 12q16 102 16 162q0 184 -10 443q-14 361 -45 424l-44 44q-2 3 -4 9q-57 0 -122 -15q-45 -10 -60 -13l-45 -8h-4q-3 -1 -4 -1q-23 -71 -22 -125l3 -167q0 -6 -4 -63q-11 -4 -19 -5l-2 220q-1 58 -4 119l-51 50z" />
    <glyph glyph-name="i" unicode="i" horiz-adv-x="507" 
d="M374 626q0 -74 -57 -117q-51 -39 -127 -39q-74 0 -128 36q-62 41 -62 112q0 76 41 128q44 57 118 57q82 0 145 -47q70 -51 70 -130zM325 384q0 -61 4 -145l4 -84q1 -21 1 -60q0 -172 -10 -294q-144 -46 -293 -46l-5 100v134q0 203 26 391q22 11 274 11zM360 421h-2
q13 6 25 17q68 52 68 138q0 75 -53 128l-26 26q-20 27 -50 50q-70 53 -163 53q-86 0 -139 -66q-50 -61 -50 -149q0 -86 75 -138l23 -23q31 -31 61 -42q-85 -6 -105 -16q-28 -204 -28 -410v-135l6 -129h6l47 -47q177 0 344 53q12 145 12 314q0 40 -1 61l-4 84q-4 84 -4 140
l5 38l-48 47z" />
    <glyph glyph-name="j" unicode="j" horiz-adv-x="872" 
d="M325 -195q-307 0 -325 387q105 45 214 51v-16q0 -166 109 -166q92 0 128 199q20 111 20 274q0 62 -24 251q39 19 123 19q28 0 104 -16q50 -155 50 -409q0 -208 -94 -375q-112 -199 -305 -199zM291 177v45l-47 47v6q-144 -8 -275 -63q12 -272 148 -375l23 -23
q86 -86 235 -86q209 0 329 213l-1 1q98 171 98 387q0 259 -56 432l-46 45q0 3 -2 8q-87 20 -127 20q-95 0 -155 -31q26 -206 26 -269q0 -155 -20 -268q-31 -175 -98 -175q-13 0 -23 3q-9 29 -9 83z" />
    <glyph glyph-name="k" unicode="k" horiz-adv-x="879" 
d="M72 769q85 6 255 33v-28q0 -50 4 -120l4 -70q1 -18 1 -50q161 266 219 266l161 -55q-173 -268 -235 -438q62 -90 145 -217q108 -165 112 -212l-147 -24q-86 -14 -147 -30q-92 173 -158 328q-13 -39 -13 -92q0 -6 2 -34l7 -98q1 -14 1 -34q0 -55 -15 -89q-5 1 -135 1
q-79 0 -133 14l48 423q26 229 26 425q0 51 -2 101zM37 797q7 -54 7 -78v-51q0 -194 -26 -422l-51 -448q1 0 3 -1h4l46 -47q79 -21 163 -21q132 0 152 -4q25 56 25 119q0 24 -1 36l-4 49q14 -29 35 -69l38 -72q1 1 2 1t2 1l48 -48q74 20 165 35l172 28q-7 81 -118 250
q-63 95 -138 205q62 162 247 450l-48 48q2 2 3 4l-201 68q-58 0 -158 -138v92l-47 47v6l-120 -20q-80 -12 -168 -18z" />
    <glyph glyph-name="l" unicode="l" horiz-adv-x="662" 
d="M64 768q65 13 171 13h45q0 -103 -14 -313q-13 -195 -13 -313q0 -18 85 -18q24 0 74 2l50 2q54 2 54 -47v-32q-1 -6 -1 -7v-2q0 -32 9.5 -95t9.5 -95q0 -54 -176 -54q-28 0 -80 2l-52 2q-47 2 -226 -12zM35 789l-67 -1020h3q2 1 3 1l47 -48q22 1 79 5l73 5q72 5 102 4
l133 -4q203 0 203 81q0 32 -9.5 94.5t-9.5 94.5v7q0 5 1 13v22q0 35 -18 53l-37 37q-20 39 -77 37l-50 -2q-2 0 -4 -1h-28q-11 -1 -15 -1h-34q4 88 13 249l6 103q2 26 5 95l2 81q1 41 1 63l-47 47v6h-75q-114 0 -177 -14z" />
    <glyph glyph-name="m" unicode="m" horiz-adv-x="1180" 
d="M487 341q40 81 60 222q26 183 39 229l240 8q90 3 121 3q16 -42 47 -455l23 -304q6 -77 11 -196q-26 -12 -70 -12h-214q-20 111 -48 333q-21 -96 -82 -322q-29 -6 -177 -19q-12 -1 -41 -4q-21 52 -50 194q-25 125 -60 192l-6 -243q-2 -81 -2 -133q0 -22 -36 -22
q-11 0 -33.5 4t-33.5 4q-2 0 -102 -3q-68 -2 -73 0q25 103 34 304l16 348q8 176 48 265q54 20 126 28q51 5 129 15q50 -186 131 -436h3zM375 810q-30 -3 -87 -10l-38 -5q-8 -1 -29 -3q-73 -8 -146 -34q-46 -99 -55 -288l-10 -203q-2 -38 -6 -145q-8 -195 -37 -314
q13 -11 20 -16l33 -33q20 -20 51 -20h22q4 0 31 1q81 3 101 3q11 0 33.5 -4t33.5 -4q63 0 63 49v68q10 -34 22 -62q2 1 5 1l47 -47q35 7 98 11q75 5 99 8q28 4 59 10l24 88q4 -29 9 -55h6l47 -47h237q49 0 98 23q-9 181 -28 428l-7 90q-32 416 -54 480l-46 45q0 3 -2 8
q-17 0 -52 -1l-212 -6q-10 0 -142 -5q-15 -54 -46 -254q-7 -47 -16 -84q-51 168 -78 274l-47 46v4q-1 2 -1 3z" />
    <glyph glyph-name="n" unicode="n" horiz-adv-x="940" 
d="M295 803l84 -276q50 -163 98 -270q12 37 12 116q0 44 -7 148q-6 89 -6 148q0 17 2.5 49.5t2.5 49.5l298 1q-1 -14 -6 -77q-9 -107 -9 -130q0 -151 7 -364q8 -243 8 -363q-226 -11 -346 -23q-47 116 -141 370q-14 -42 -4 -345q1 -32 -268 -32q-20 23 -20 69q0 156 17 451
l26 451zM14 804l-27 -477q-17 -300 -17 -453q0 -57 37 -99h4l47 -47q310 0 307 60q0 17 -2 66l-2 59q25 -68 53 -133h2q1 1 2 1l48 -48l79 7q144 13 311 19v72q0 83 -8 318q-7 206 -7 363q0 41 9 128l3 29l4 58q1 14 1 19l-47 47v6l-360 -1q0 -14 -2 -43t-2 -43v-5
q-1 -11 -1 -21v-17q0 -117 8 -181l-90 294l-46 46l-2 7z" />
    <glyph glyph-name="o" unicode="o" horiz-adv-x="1102" 
d="M676 364q0 79 -41 129q-44 54 -122 54q-83 0 -151 -83q-64 -79 -64 -164q0 -81 51 -126t133 -45q89 0 144 75q50 68 50 160zM960 278q0 -194 -131 -332q-133 -141 -325 -141q-227 0 -363 123q-141 128 -141 352q0 122 82 249q73 113 183 191q119 84 235 84
q238 0 355 -148q105 -133 105 -378zM155 -122q150 -150 399 -150q204 0 345 149q138 145 138 351q0 289 -142 431l-17 17q-125 158 -378 158q-125 0 -254 -91q-117 -82 -192 -201q-84 -132 -84 -262q0 -237 152 -372q11 -8 20 -17zM646 364q0 -81 -41 -139q-46 -66 -123 -66
q-53 0 -94 25q-13 27 -13 66q0 73 58.5 146.5t129.5 73.5q32 0 61 -13q22 -39 22 -93z" />
    <glyph glyph-name="p" unicode="p" horiz-adv-x="863" 
d="M294 390q13 4 100 37q67 25 67 64q0 19 -22 39t-41 20q-49 0 -123 -8q8 -22 13 -74zM396 804q143 0 242 -64q116 -75 116 -211q0 -198 -257 -296q-51 -19 -196 -73q-1 -12 -1 -27q0 -42 8 -122q12 -120 12 -148l-126 -24q-30 -6 -173 -34q-21 36 -21 117q0 136 16 412
q17 293 17 413q171 57 363 57zM396 834q-202 0 -393 -65q0 -63 -5 -182l-5 -119q-2 -36 -7 -132q-16 -280 -16 -414q0 -93 35 -151q2 1 5 1l47 -47q2 0 99 19l241 46q0 56 -12 174q-8 79 -8 120v7q52 20 138 52q11 3 41 14q120 44 191 119q84 88 84 203q0 117 -76 193l-4 3
l-15 14q-102 145 -340 145zM359 468q20 1 59 4q-7 -5 -57 -25v10q0 6 -2 11zM425 506zM751 675q0 1 -1 1z" />
    <glyph glyph-name="q" unicode="q" horiz-adv-x="1063" 
d="M587 496q0 89 -97 89q-105 0 -184 -96q-75 -91 -75 -199q0 -44 25 -84q28 -46 69 -46q9 0 68 3q-68 116 -116 151q113 143 138 143q22 -17 63 -52q32 -27 79 -59q30 100 30 150zM888 533q0 -102 -28 -197q-32 -110 -92 -175q58 -37 86 -59q56 -44 63 -77
q-128 -128 -197 -219q-105 79 -181 144q-69 -70 -223 -70q-146 0 -234 109q-82 102 -82 251q0 224 107 373q124 173 347 173q434 0 434 -253zM138 -105q92 -92 228 -92q147 0 223 61q55 -46 86 -69l100 -76q50 65 111 131l26 28q1 1 23 26l1 -1l33 35q17 18 27 28
q-10 45 -50 85l-4 3l-24 24q-19 25 -45 47q-2 1 -6 4q98 141 98 354q0 109 -66 172l-25 24q-98 137 -420 137q-239 0 -371 -185q-113 -158 -113 -391q0 -157 90 -268q29 -36 60 -59zM557 496q0 -34 -18 -101q-20 12 -51 39q-36 32 -50 41q50 33 102 33q8 0 16 -2q1 -3 1 -10
zM340 190q-6 -1 -9.5 -0.5t-5.5 0.5h-8q-9 21 -9 43q8 -10 16 -21z" />
    <glyph glyph-name="r" unicode="r" horiz-adv-x="905" 
d="M466 491q0 42 -27 65t-70 23q-25 0 -38 -9q-6 -49 -17 -204q52 0 100 36q52 38 52 89zM608 -163q-84 -20 -152 -23l-31 57q-25 47 -97 180q-14 26 -40 62q-1 -44 -4 -168q-4 -136 -33 -140q-15 5 -43 5h-20q-13 0 -39 -1.5t-39 -1.5q-79 0 -109 27l-1 135q-1 161 23 373
q31 271 33 373q149 89 362 89q123 0 214 -46q115 -58 115 -169q0 -145 -52.5 -232t-180.5 -158l142 -159q100 -112 103 -167zM24 -228q41 -42 136 -42h13q9 0 19 1h2q7 0 22 1t22 1h20q23 0 40 -6q63 10 63 167v33q0 -2 2 -4q42 -82 76 -140h5l47 -47q84 4 173 25l173 41
q-4 87 -111 206l-120 133q119 71 170 165q48 91 48 233q0 86 -58 142l-24 23q-33 48 -97 81q-95 49 -227 49q-223 0 -392 -102q-2 -117 -33 -387q-23 -200 -23 -357v-19l1 -148q6 -5 19 -14zM436 491q0 -33 -37 -63q2 24 7 73q4 1 13 1q8 0 16 -2q0 -2 1 -4v-5z" />
    <glyph glyph-name="s" unicode="s" horiz-adv-x="824" 
d="M10 149q38 -1 92 -1h124q6 -36 9 -46q9 -29 30 -57q5 -1 9 -1h10q67 0 67 69q0 40 -76 91q-38 25 -75 50q-43 30 -71 56q-81 76 -93 178q21 154 116.5 234.5t252.5 80.5q114 0 197.5 -76.5t83.5 -189.5q1 0 2 -1l-2 -2v3q-54 -16 -230 -54l-24 60q-17 33 -50 33
q-27 0 -49.5 -19t-22.5 -46q0 -40 81 -84q110 -60 151 -102q81 -84 81 -221q0 -135 -88 -217t-224 -82q-150 0 -221 41q-90 52 -90 195q0 72 10 108zM678 686l-15 14q-95 133 -258 133q-170 0 -273 -88t-126 -256q14 -124 109 -207q2 -2 10 -9l25 -24q1 -3 6 -5l4 -4
q11 -11 82 -62h-132h-21q-34 1 -29 1h-50l-29 -22q-11 -37 -11 -116q0 -151 90 -212l26 -26q75 -75 275 -75q145 0 242 91l-1 1q98 90 98 234q0 148 -89 240l-4 3h1l-20 20q-2 3 -25 29q-31 29 -72 56q56 9 191 43l90 28q-2 58 -27.5 116.5t-66.5 96.5zM418 496l19 -48
q3 0 5 1l41 -41q-34 22 -78 46q-11 4 -18 9q2 26 31 33zM299 125l-46 45q28 -21 57 -38q2 -2 7 -6q4 -8 4 -13q0 -25 -15 -34q-1 5 -3 20zM603 301zM666 697l3 -2q-1 1 -4 3zM336 11z" />
    <glyph glyph-name="t" unicode="t" horiz-adv-x="872" 
d="M212 509q-71 10 -212 29q15 87 38 235q112 16 332 16q52 0 191 -11l137 -11q32 -2 53 -3q9 -15 9 -108q0 -101 -7 -147q-61 -4 -299 -3l14 -337q7 -176 25 -336q-55 -8 -165 -15q-65 -4 -164 -13zM18 465l86 -11q6 -1 73 -11l-45 -672h2q2 1 3 1l48 -48l76 7q72 7 227 19
q48 4 85 9q0 1 -7 78l-8 89q-9 101 -13 194l-13 309h80q14 0 70 1l112 2q10 0 33 1q10 76 10 173q0 100 -21 135l-43 42q-1 6 -5 11q-60 2 -199 14q-128 11 -199 11q-234 0 -359 -19q-8 -51 -13 -81l-26 -154q0 -3 -8 -53q3 0 9 -2z" />
    <glyph glyph-name="u" unicode="u" horiz-adv-x="1000" 
d="M856 440q0 -266 -90 -429q-114 -206 -357 -206q-244 0 -339 242q-62 158 -62 452v175q0 11 7 58q5 35 2 57l223 15l44 -5q1 -57 -3 -217q-3 -120 -3 -217q0 -269 126 -269q87 0 123 176q21 103 21 246q0 40 -7 99q-13 113 -13 151q26 24 161 25l101 1q66 1 66 -354z
M355 315q0 66 3 199t3 199v60l-47 47v6l-73 8l-260 -17q7 -36 7 -44t-4 -37q-6 -43 -6 -62v-175q0 -503 197 -651l19 -19q101 -101 265 -101q259 0 381 220q93 168 93 442q0 309 -59 366l-36 35q-20 33 -47 33h-1l-101 -1q-145 -1 -191 -42q0 -44 10 -131.5t10 -131.5
q0 -145 -20 -240q-32 -152 -94 -152q-13 0 -23 3q-26 58 -26 186z" />
    <glyph glyph-name="v" unicode="v" horiz-adv-x="938" 
d="M828 745q0 -81 -93 -466q-91 -379 -129 -466q-19 -10 -58 -10q-139 0 -247 21l-152 483q-128 406 -149 427l247 18q21 -54 88 -291q52 -183 106 -284q13 38 18 100q3 44 11 100q5 36 45 209l29 125q13 54 18 84q34 9 86 9q46 0 172 -21zM845 810q-144 24 -197 24
q-59 0 -113 -14q-24 -114 -77 -351q-8 -34 -22 -112q-1 -3 -2 -18l-23 79q-65 231 -96 313l-45 45q-1 3 -3 8l-316 -31q113 -278 169 -455l158 -501q1 0 3 -1h3l46 -46q123 -24 268 -24q47 0 79 17q42 95 76 237l58 243q94 390 94 473l-13 61l-46 45z" />
    <glyph glyph-name="w" unicode="w" horiz-adv-x="1390" 
d="M0 749q166 37 252 51q29 -85 70 -237q45 -167 69 -238q33 79 57 226l37 231q5 2 101 -5q104 -8 148 -18q29 -73 63 -214l26 -109q10 -42 32 -107l51 226q26 115 37 229q129 4 300 20l33 -33l-141 -926l-421 -30q-2 8 -48 207q-29 123 -57 206q-13 -43 -36 -182
q-19 -111 -46 -179q-11 -1 -145 5l-142 6q-37 2 -59 52q-13 30 -28 102q-61 295 -153 717zM-35 770l159 -745q9 -44 29 -107q19 -42 48 -60l34 -34q23 -23 55 -23q10 0 141 -6q109 -5 135 -5h29q32 80 51 183l32 -134q6 -27 14 -56l4 1l48 -48l465 34l146 960l-48 47v2
q1 1 1 2l-54 54q-207 -19 -339 -22q-14 -123 -38 -249q-4 -14 -8 -35q0 -2 -2 -7q-27 116 -63 210l-45 44l-3 9q-58 13 -168 22q-75 6 -93 6q-21 0 -39 -18l-38 -240q-1 -8 -6 -34l-6 -33l-4 16q-40 160 -83 276l-45 45q-1 2 -3 8q-77 -11 -197 -37l-83 -18z" />
    <glyph glyph-name="x" unicode="x" horiz-adv-x="1095" 
d="M30 -158q64 124 187 372q-57 126 -120 269q-97 221 -97 247q0 27 100 39q58 7 126 9q71 -100 199 -353q41 103 101 264q21 55 38 114q311 -59 311 -91q0 -43 -93 -224q-113 -220 -120 -241l167 -202q128 -155 134 -195q-152 -33 -260 -31l-48 1l-194 248
q-44 -51 -68 -125l-45 -138q-134 2 -318 37zM51 -246q44 -5 183 -15q150 -11 184 -11l29 89q12 38 24 75q15 44 33 72l137 -174h4l47 -47l71 -1q103 -1 281 37q-10 72 -144 233l-157 189q40 81 113 225q96 188 96 236q0 10 -9 19l-40 40q-24 53 -360 117q-27 -87 -45 -137
q-2 -5 -69 -181l-66 119q-25 46 -73 116l-40 39q-3 4 -9 14q-113 -3 -157 -10q-114 -18 -114 -68q0 -29 99 -259q62 -143 115 -257q-125 -254 -199 -393q27 -31 34 -56q2 -8 32 -11z" />
    <glyph glyph-name="y" unicode="y" horiz-adv-x="1096" 
d="M363 -155v88q0 23 -1 133l-2 219l-183 222q-92 111 -177 227q21 5 162 21q158 18 161 17q-5 1 -12 2h-10q2 -2 11 -3q51 -49 100 -125q21 -33 86 -136q39 79 114 273q207 5 355 21q-11 -53 -73 -148l-159 -245q-9 -13 -62 -117l3 3q19 0 19 -432q0 -22 -5 -60
q-30 6 -79 6q-9 0 -46 -2l-130 -7q-14 -1 -40 4t-38 5q6 23 6 34zM329 -209l73 -69q-5 0 9 1t16 1h11q29 0 48 1l130 7q37 2 45 2q40 0 102 -11q9 61 9 92q0 323 -29 419l4 -2l41 77q5 10 20 37q34 55 158 245q64 98 85 194l-47 47q0 4 1 6q-191 -21 -414 -25l-52 -130
q-22 -54 -40 -98q-4 10 -14 25q-57 86 -92 118l-9 8l-25 30q-9 11 -27 27l-6 2l-1 1l3 6h-6q-14 0 -49 -4l-114 -13q-68 -8 -105 -13q-58 -8 -104 -21l42 -56q85 -114 162 -207l176 -214l3 -429q0 -34 -4 -54l2 27z" />
    <glyph glyph-name="z" unicode="z" horiz-adv-x="912" 
d="M434 534q-40 2 -128 0q-44 -1 -64 -1h-63q-108 0 -158 14q8 62 19 234q206 22 467 22q79 0 189 -12q21 -50 35 -135q13 -78 13 -140q0 -4 -138 -150q-86 -91 -224 -248q6 -1 56 0q29 0 119 2l176 4q31 1 40 -18q5 -11 5 -44q0 -123 -22 -175q-35 -83 -138 -83
q-37 0 -93 5q-81 6 -93 7q-35 2 -52 2q-57 0 -172 -7t-172 -7q-36 0 -36 185v101zM-30 -25q0 -177 51 -198l38 -38q12 -12 27 -12q57 0 172 7t172 7q35 0 93 -5l93 -8q12 -1 52 -1q120 0 162 100l1 -1q24 57 24 186q0 52 -19 71l-37 37q-19 35 -67 34l-176 -4q-5 -1 -9 -1
h-9l138 148q145 156 145 169q0 167 -56 300l-45 44l-3 9q-128 14 -210 14q-272 0 -495 -24l-6 -81q-2 -22 -7 -80l-6 -71q-2 -20 -5 -52q6 -2 7 -2l46 -46q61 -17 231 -21q33 -1 44 0l-346 -354v-127zM39 -227v1l47 -47z" />
    <glyph glyph-name="Aring" unicode="&#xc5;" horiz-adv-x="887" 
d="M427 234q-54 143 -83 181q-13 -76 -23 -181h106zM518 651q84 -166 148 -389q63 -219 84 -409l-254 -25q-34 139 -71 228q-20 0 -119 -11q-9 -28 -29 -96l-39 -135q-189 0 -238 -3q76 413 185 781l33 28l51 10l-23 55q0 56 42 87q37 28 95 28q39 0 62 -34q20 -30 20 -71
q0 -27 -9 -48zM17 -268q19 1 111 3q5 0 86 1l94 1l38 131q12 41 30 102q15 1 46 6q9 -26 52 -180l4 1l48 -48l304 30q-32 320 -161 655q-38 100 -85 195l-44 43q0 2 -1 2q-6 31 -21 57q-5 7 -15 19l-33 33h1q-29 47 -88 47q-64 0 -108 -31v1q-59 -44 -59 -121l11 -28l-23 -4
l-46 -39q-111 -378 -195 -829h4q2 1 3 1z" />
    <glyph glyph-name="AE" unicode="&#xc6;" horiz-adv-x="1203" 
d="M455 238l-22 138q-11 69 -45 131q-48 -168 -50 -269h117zM1059 -108q-23 -35 -161 -51q-83 -9 -251 -15q-132 -4 -135 -9l-10 11q-11 16 -29 99q-12 57 -24 113l-47 2l-82 -2q-14 -22 -20 -93l-9 -103l-216 -5q-35 -1 -75 14q14 358 153 911q102 46 424 43l387 -4
q14 -127 28 -216l-26 -1q-77 -3 -107 -6q-83 -8 -128 -26l-14 -59q0 -29 17 -71q77 0 193 7l26 -96l-2 -75l-103 -16q-57 -9 -100 -29q1 -34 2 -69q2 -43 12 -66q183 12 222 12h49zM826 147q24 8 77 20h-1q42 6 125 20l3 101l-33 121l-46 46l-2 7l-79 -4q-40 -2 -74 -3l7 29
q43 14 108 18q17 1 46 3l47 3q47 3 70 3q-4 29 -10 70l-10 74q-11 84 -15 125l-47 46v7l-455 4q-293 3 -410 -51q-144 -570 -158 -953q6 -2 8 -3l45 -45q66 -24 103 -23l239 6q7 38 13 127q3 47 11 69l49 1q0 -2 7 -42q14 -84 36 -115l35 -38q0 2 2 2l41 -35q7 9 67 11
q37 1 73 1q163 4 253 15q152 18 181 63l4 18l-29 224l-46 46l-1 7h-76q-37 0 -157 -8q0 11 -1 33z" />
    <glyph glyph-name="Oslash" unicode="&#xd8;" horiz-adv-x="944" 
d="M327 490q-28 0 -66.5 -36t-38.5 -64q0 -22 15.5 -49.5t34.5 -42.5q13 19 52 93q15 51 31 99h-28zM620 282q0 16 -17 51t-30 35q-9 0 -45 -65q-33 -59 -42 -80q27 -13 43 -13q27 0 59 23t32 49zM808 265q0 -96 -65 -195q-73 -111 -161 -111q-97 0 -218 57q-30 -41 -55 -83
q-14 -24 -50 -86q-10 -16 -29 -43q-49 11 -163 116q5 29 43 87q11 17 20 29l40 54q-69 44 -88 60q-49 39 -65.5 80t-16.5 109q0 152 114 258t267 106q24 0 58 -9l57 -15q22 33 98 124q62 -19 153 -53l7 -19q-34 -70 -46 -97q-27 -63 -30 -100q130 -149 130 -269zM86 105
q20 -20 33 -29q0 -2 2 -2q-11 -16 -34 -49l-4 -4q-40 -60 -48 -112l18 -16q5 -4 18 -16l17 -17q118 -118 204 -136q29 42 76 124l1 -1q25 44 54 86q115 -51 209 -51q104 0 184 123q69 106 69 210q0 125 -129 277q4 31 27 81h-1q4 8 12 23h-1q24 52 40 82l-15 43l-46 46l-2 6
q-105 38 -152 54q-10 3 -34 11q-62 -75 -100 -125l-37 10q-37 10 -66 10q-165 0 -288 -115t-123 -279q0 -75 19 -121q22 -52 78 -94z" />
    <glyph glyph-name="aring" unicode="&#xe5;" horiz-adv-x="887" 
d="M427 234q-54 143 -83 181q-13 -76 -23 -181h106zM518 651q84 -166 148 -389q63 -219 84 -409l-254 -25q-34 139 -71 228q-20 0 -119 -11q-9 -28 -29 -96l-39 -135q-189 0 -238 -3q76 413 185 781l33 28l51 10l-23 55q0 56 42 87q37 28 95 28q39 0 62 -34q20 -30 20 -71
q0 -27 -9 -48zM17 -268q19 1 111 3q5 0 86 1l94 1l38 131q12 41 30 102q15 1 46 6q9 -26 52 -180l4 1l48 -48l304 30q-32 320 -161 655q-38 100 -85 195l-44 43q0 2 -1 2q-6 31 -21 57q-5 7 -15 19l-33 33h1q-29 47 -88 47q-64 0 -108 -31v1q-59 -44 -59 -121l11 -28l-23 -4
l-46 -39q-111 -378 -195 -829h4q2 1 3 1z" />
    <glyph glyph-name="ae" unicode="&#xe6;" horiz-adv-x="1203" 
d="M455 238l-22 138q-11 69 -45 131q-48 -168 -50 -269h117zM1059 -108q-23 -35 -161 -51q-83 -9 -251 -15q-132 -4 -135 -9l-10 11q-11 16 -29 99q-12 57 -24 113l-47 2l-82 -2q-14 -22 -20 -93l-9 -103l-216 -5q-35 -1 -75 14q14 358 153 911q102 46 424 43l387 -4
q14 -127 28 -216l-26 -1q-77 -3 -107 -6q-83 -8 -128 -26l-14 -59q0 -29 17 -71q77 0 193 7l26 -96l-2 -75l-103 -16q-57 -9 -100 -29q1 -34 2 -69q2 -43 12 -66q183 12 222 12h49zM826 147q24 8 77 20h-1q42 6 125 20l3 101l-33 121l-46 46l-2 7l-79 -4q-40 -2 -74 -3l7 29
q43 14 108 18q17 1 46 3l47 3q47 3 70 3q-4 29 -10 70l-10 74q-11 84 -15 125l-47 46v7l-455 4q-293 3 -410 -51q-144 -570 -158 -953q6 -2 8 -3l45 -45q66 -24 103 -23l239 6q7 38 13 127q3 47 11 69l49 1q0 -2 7 -42q14 -84 36 -115l35 -38q0 2 2 2l45 -31q6 8 42 8h94
q126 0 253 15q152 18 181 63l4 18l-29 224l-46 46l-1 7h-76q-37 0 -157 -8q0 11 -1 33z" />
    <glyph glyph-name="ccedilla" unicode="&#xe7;" horiz-adv-x="470" 
 />
    <glyph glyph-name="oslash" unicode="&#xf8;" horiz-adv-x="944" 
d="M327 490q-28 0 -66.5 -36t-38.5 -64q0 -22 15.5 -49.5t34.5 -42.5q13 19 52 93q15 51 31 99h-28zM620 282q0 16 -17 51t-30 35q-9 0 -45 -65q-33 -59 -42 -80q27 -13 43 -13q27 0 59 23t32 49zM808 265q0 -96 -65 -195q-73 -111 -161 -111q-97 0 -218 57q-30 -41 -55 -83
q-14 -24 -50 -86q-10 -16 -29 -43q-49 11 -163 116q5 29 43 87q11 17 20 29l40 54q-69 44 -88 60q-49 39 -65.5 80t-16.5 109q0 152 114 258t267 106q24 0 58 -9l57 -15q22 33 98 124q62 -19 153 -53l7 -19q-34 -70 -46 -97q-27 -63 -30 -100q130 -149 130 -269zM86 105
q20 -20 33 -29q0 -2 2 -2q-11 -16 -34 -49l-4 -4q-40 -60 -48 -112l18 -16q5 -4 18 -16l17 -17q118 -118 204 -136q29 42 76 124l1 -1q25 44 54 86q115 -51 209 -51q104 0 184 123q69 106 69 210q0 125 -129 277q4 31 27 81h-1q4 8 12 23h-1q24 52 40 82l-15 43l-46 46l-2 6
q-105 38 -152 54q-10 3 -34 11q-62 -75 -100 -125l-37 10q-37 10 -66 10q-165 0 -288 -115t-123 -279q0 -75 19 -121q22 -52 78 -94z" />
    <glyph glyph-name="afii10077" unicode="&#x43b;" horiz-adv-x="1000" 
 />
    <glyph glyph-name=".null" unicode="&#xe001;" horiz-adv-x="470" 
 />
    <glyph glyph-name="nonmarkingreturn" unicode="&#xe002;" horiz-adv-x="470" 
 />
    <glyph glyph-name="glyph99" 
 />
    <glyph glyph-name="glyph100" 
 />
    <glyph glyph-name="glyph98" 
 />
    <glyph glyph-name="glyph99" 
 />
    <glyph glyph-name="glyph97" horiz-adv-x="470" 
 />
    <glyph glyph-name="ch260" horiz-adv-x="470" 
 />
  </font>
</defs>
</svg>
